<?xml version="1.0" encoding="UTF-8"?>
<svg id="Layer_1" data-name="Layer 1" xmlns="http://www.w3.org/2000/svg" viewBox="0 0 4000 1731.48">
  <defs>
    <style>
      .cls-1 {
        fill: #6e6f72;
      }

      .cls-1, .cls-2 {
        stroke-width: 0px;
      }

      .cls-2 {
        fill: #fff;
      }
    </style>
  </defs>
  <rect class="cls-2" width="4000" height="1731.48"/>
  <path class="cls-1" d="M1106.98,625.34c-4.51-40.1-29.67-56.82-52.78-64.06,14.37-7.71,19.37-17.97,21.07-23.45,7.69-3.69,27.12-14.89,27.12-33.73,0-9.9-5.01-19.13-13.75-25.32-8.35-5.9-18.81-8.3-28.53-6.73-7.88-19.87-25.35-30.38-45.71-27.41-12.52-24.01-41.7-32.34-64.75-29.69-17.13,1.95-30.36,9.49-36.16,20.03-12.37-5.41-30.92-3.38-44.83,2.9-14.04,6.34-22.7,16.28-24.68,27.96-7.25,0-16.32,2.97-24.16,8.74-10.51,7.73-16.55,18.45-17.02,29.52-.44.02-.84,0-1.27.02-19.16,1.34-32.18,9.49-38.9,19.05-.69-.57-1.5-1.03-2.25-1.54,4.11-4.31,8.82-10.81,8.29-17.65-.27-3.39-1.9-8.18-8.21-11.69-4.14-2.3-6.63-5.46-6.2-7.87.57-3.19,6.61-7.26,18.82-9.18,30.16-4.73,71.64-23.64,86.09-45.95,4.21-6.51,5.82-12.92,5.11-19.15,16.26-2.83,27.42-8.24,33.12-16.19,2-2.79,3.04-5.5,3.54-7.81,9.09-1.49,27.39-6.01,38.26-19,6.74-8.05,9.54-17.92,8.32-29.32-1.55-14.56-8.44-26.86-19.92-35.59-18-13.68-47.41-18.58-81.07-13.59-21.3-21.56-64.14-7.59-85.16-.74l-1.43.46c-20.53,6.67-35.47-13.53-38.25-17.65-15.24-22.54-38.73-19.26-55.08-14.85-11.77,3.18-22.46,10.37-29.79,19.36-18.75-8.16-40.25-8.83-61.09-1.65-17.99,6.19-33.62,17.56-41.17,29.68-14.64-.3-31.24,7.22-40.55,18.27-7.31,8.68-9.66,19-6.6,29.04,2.57,8.45,9.12,14.97,18.93,18.88,15.04,5.96,36.64,5.08,50.32.43,2.49,4.08,6.61,7.4,12.1,9.65,13.16,5.41,35.19,4.31,49.28-6.89,7.47-5.93,12.76-6.13,14.35-4.87,1.08.86,1.35,3.62-.59,7.65-7.07,14.65-30.31,17.19-39.97,17.6-14.25.6-26.09,7.75-31.65,19.11-5.27,10.76-3.91,23.09,3.73,33.84,3.37,4.74,6.89,8.98,10,12.72,10.43,12.55,15.29,19.07,11.78,30.21-3.34,10.57-15.76,20.62-32.42,26.22-20.44,6.88-42.08,5.43-55.74-3.53-5.32-10.68-14.25-16.55-23.43-19.01,7.6-6.52,13.33-13.94,16.92-22.35,8.87-20.77,2.44-40.36-2.18-50.19-11.89-25.3-38.21-35.54-58.74-31.06-5.22-16.3-21.82-27.57-45.92-30.75-13.64-1.77-29.07-.59-38.61,4.27-1.99-2.97-4.77-5.8-8.24-8.33-17.92-13.06-47.95-14.63-80.32-4.23-42.56,13.69-57.9,30.62-63.27,42.41-2.32,5.09-3.3,10.27-2.93,15.32-6.38.55-13.76,2.93-20.29,6.78-13.36,7.87-21.61,20.54-23.24,35.69-3.47,32.18,18.34,44.89,33.8,52.3-1.75,10.29.93,20.82,7.67,30.35-12.33,7.45-22.23,20.9-25.13,35.09-2.81,13.75,1.09,27.22,10.89,38.42-20.06,10.42-31.09,27.28-31.48,48.92-.28,15.85,5.91,30.69,16.98,40.73,5.45,4.95,11.62,8.3,17.54,9.69-.91,7.31.62,14.72,4.54,21.77,3.61,6.49,9.12,12.3,16.19,17.39.06.38.04.76.17,1.13,4.48,12.26,16.99,22.27,35.22,28.19,10.78,3.5,24.1,5.59,38.37,5.59,22.53,0,47.35-5.31,68.2-18.47,15.6,11.91,39.71,18.69,67.2,18.69,2.12,0,4.26-.04,6.42-.12,45.55-1.72,65.25-14.9,71.59-20.45,9.99.2,42.77-1.28,68.03-28.88,16.18-17.68,25.63-37.09,33.22-52.69,5.41-11.11,10.09-20.71,15.1-24.98.8-.68,1.61-1.27,2.42-1.9,2.61,5.69,7,10.39,12.89,13.9-5.79,3.17-10.31,7.22-13.4,12.18-5.14,8.25-6.29,18.49-3.42,30.43,3.31,13.81-14.09,21.08-14.81,21.38-2.34.94-3.88,3.21-3.88,5.73s1.54,4.79,3.88,5.73c3.36,1.34,7.01,2,10.78,2,6.72,0,13.81-2.1,20.27-6.17,9.83-6.19,16.09-15.86,16.76-25.85.36-5.38,1.84-6.61,2.33-7.01,4.01-3.33,17.06-1.74,35.12.46,9.78,1.19,21.96,2.67,36.15,3.81,7.52.6,15.33.66,23.19.3,7.21.77,14.2,1.15,20.95,1.15,45.67,0,80.61-16.51,99.34-33.67,10.84-9.93,16.69-20.36,16.48-29.38,0-.11-.06-.21-.07-.33.01-.01.02-.02.04-.03,4.29-4.2,6.99-9.01,8.02-14.19,10.64,1.33,23.31-2.18,34.4-9.89,1.98-1.37,3.82-2.85,5.55-4.39,5.48,4.33,18.15,11.44,42.19,10.97,43.09-.78,64.1,7.32,69.31,15.04,1.14,1.69,2.41,4.52.27,9.55-2.3,5.42-18.02,9.99-32.54,13.78-5.21,1.06-10.33,2.34-15.25,3.95-23.82,6.35-46.25,14.03-51.94,31.37-2.68,8.17-1.68,16.16,2.88,23.11,15.01,22.89,62.64,27.6,63.11,27.65,3.5.33,5.97,1.27,6.96,2.65.99,1.39.55,3.36.55,3.36h0c-.89,3.04.67,6.25,3.61,7.44.76.31,1.54.45,2.32.45,2.23,0,4.36-1.21,5.46-3.29.57-1.08,5.46-10.8,1.51-20-1.65-3.85-5.52-8.96-14.57-11.47-8.12-2.25-32.53-9.04-33.03-18.98,3.76-3.07,22.78-4.17,35.49-4.9,15.19-.87,32.4-1.86,45.81-5.35,15.68-4.09,66.36-21.74,60.13-77.13ZM1084.96,597.37c-16.23-16.19-40.39-24.1-63.91-25.85-14.09-1.04-22.43-3.73-26.97-5.8,1.72-1.98,3.32-4.15,4.77-6.54.83.72,1.71,1.42,2.65,2.07,6.74,4.7,15.44,7.1,24.62,7.17,22.28,2.31,45.76,8.64,58.84,28.94ZM827.14,484.51c7.88-5.8,16.36-7.46,19.99-5.72,1.99.96,4.34.77,6.17-.48,1.82-1.25,2.83-3.38,2.66-5.58-1.05-13.08,10.69-20.41,17.79-23.62,15.5-6.99,33.11-5.97,38.5-.4,1.63,1.69,4.07,2.3,6.31,1.6,2.24-.71,3.88-2.63,4.23-4.96,1.38-9.09,12.74-16.38,28.27-18.15,20-2.3,45.45,5.1,54.04,26.69,1.15,2.88,4.24,4.47,7.23,3.71,21.55-5.34,33.83,9.28,37.83,23.47.46,1.64,1.59,3.02,3.1,3.8,1.52.78,3.28.9,4.9.34,7.39-2.62,16.56-1.18,23.36,3.63,3.19,2.26,8.54,7.23,8.54,15.24,0,12.09-16.12,21.13-22.33,23.59-2.08.83-3.57,2.83-3.87,5.05-.07.51-1.87,12.58-20.85,20.17-5.29,2.12-10.89,3.11-16.25,3.13-2.69-.25-5.08-.43-7.06-.57-.01,0-.02,0-.04,0-4.17-.75-7.99-2.2-11.09-4.36-4.42-3.08-6.6-7.07-6.48-11.86.21-7.97,5.77-10.06,8.14-10.59,4.26-.96,10.02.35,12.57,5.47,1.52,3.04,5.23,4.27,8.28,2.76,3.05-1.53,4.29-5.23,2.76-8.28-4.72-9.45-15.52-14.39-26.29-12-10.53,2.34-17.52,11.09-17.81,22.31-.08,2.92.36,5.7,1.19,8.35-13.96,33.83-59.24,22.19-62.15,21.41-3.52-10.24-10.89-19.65-21.52-27.21-7.1-5.05-15.08-8.78-23.26-11.21-1.46-3.82-2.54-12.33.49-20.92,3.03-8.6,9.27-14.84,18.54-18.54,13.35-5.34,26.99-4.38,33.95,2.37,4.77,4.63,5.71,11.41,2.71,19.62-1.17,3.2.48,6.75,3.68,7.92,3.19,1.15,6.74-.48,7.92-3.68,4.66-12.75,2.58-24.67-5.71-32.72-10.57-10.25-29.07-12.19-47.14-4.97-15.84,6.34-22.66,17.59-25.59,25.9-2.72,7.7-3.15,15.75-2.19,22.32-5.71-.62-11.36-.63-16.7.21-5.71-13.68-19.59-21.89-38.85-23.49.51-10.1,8.34-17.05,12.03-19.77ZM843.79,536.35c.38,1.64,1.41,3.06,2.86,3.92,1.44.86,3.18,1.08,4.8.64,6.38-1.75,13.75-1.83,21.22-.58-2.93.4-5.78,1-8.43,1.93-13.27,4.62-19.31,4-22.04,2.66-2.15-1.05-3.57-3.17-5.06-7.57-3.61-10.6-12.83-18.04-25.98-21.07,12.27.48,28.97,4.16,32.64,20.06ZM848.8,422.57c-4.19,6.47-11.92,13.15-21.59,19.23,3.58-4,6.49-8.16,8.62-12.5,3.35-6.81,4.22-12.74,4.2-17.2.6,0,1.11.07,1.73.07,3.17,0,6.65-.19,10.31-.49.31,3.31-.72,6.94-3.27,10.89ZM763.75,300.1l1.44-.47c19.21-6.26,59.2-19.3,74.13-.53,1.4,1.75,3.64,2.62,5.84,2.24,31.73-5.29,59.05-1.39,74.96,10.71,8.83,6.71,13.92,15.82,15.12,27.07.86,8.03-.94,14.59-5.49,20.05-3.29,3.94-7.67,6.87-12.21,9.07,8.75-8.17,16.33-20.2,8.52-40.72-13.45-35.3-61.2-25.4-84.15-20.65l-4.11.84c-4.43.89-4.73.37-7.13-3.57-5.1-8.34-12.07-15.92-36.14-8.63-22.72,6.88-34.59,10.09-43.83,6.44,4.21.14,8.58-.4,13.06-1.86ZM543.63,312.31c4.02-8.43,17.03-20.51,36.1-27.07,17.25-5.94,34.94-5.68,50.44.54-.36.78-.59,1.6-.89,2.4-30.37-6.29-66.82,5.51-80.7,26.13-2.05-.17-4.23-.17-6.45-.1.6-.54,1.13-1.15,1.49-1.91ZM499.21,346.96c-1.85-6.08-.42-11.96,4.24-17.49,6.14-7.3,16.92-12.53,26.79-13.61-7.01,1.71-13.72,4.73-18.62,9.33-5.93,5.55-8.55,12.62-7.59,20.45.5,4.02,1.75,7.62,3.65,10.74-4.39-2.39-7.28-5.52-8.47-9.42ZM610.36,362.95c-10.08,7.99-27.22,9.11-36.91,5.14-3.01-1.23-6.69-3.48-7.14-7.22-.25-2.06-1.51-3.85-3.36-4.77-.53-.27-1.08-.42-1.65-.53-1.43-.93-3.2-1.3-4.96-.81-6.48,1.78-25.32,5.07-34.63-1.16-3.17-2.12-4.9-5.12-5.43-9.46-.48-3.86.76-7.11,3.77-9.94,7.12-6.67,21.44-8.91,30.62-7.16,2.69.51,5.41-.81,6.66-3.26,9.11-17.89,42.95-28.9,69.51-23.47-.2,9.86,3.82,19.27,11.86,27.14,11.14,10.9,30.02,13.09,43.78,10.4,12.45-2.42,21.7-8.61,25.35-16.98,4.24-9.69.15-20.45-10.19-26.76-9.92-6.06-24.32-6.83-32.66,3.41-2.15,2.65-1.76,6.53.89,8.69,2.64,2.15,6.53,1.75,8.69-.89,3.82-4.71,11.44-3.86,16.65-.68,1.9,1.16,7.89,5.4,5.31,11.28-1.98,4.53-8.11,8.19-16.4,9.8-12.54,2.43-26.02-.48-32.79-7.11-7.17-7.02-9.67-14.91-7.44-23.49,3.14-12.01,15.73-23.52,29.94-27.36,20.98-5.69,33.06-2.83,41.63,9.85,2.87,4.24,6.55,8.46,10.82,12.19.14.36.2.74.42,1.08,20.25,31.23,35.18,28.61,75.39,16.44,16.92-5.12,19.17-1.44,22.03,3.24,2.7,4.42,7.22,11.85,20.1,9.25l4.2-.86c21.1-4.38,60.4-12.52,70.1,12.96,6.94,18.21-2.04,25.1-12.44,33.08-5.16,3.97-10.04,7.71-12.56,12.97-.17.36-.18.75-.28,1.12-.03.1-.05.19-.08.29-.14.64-.17,1.26-.11,1.89,0,.17-.05.35-.03.52.01.1.32,2.43-1.97,5.35-2.74,3.5-10.77,9.72-33.75,12.05-28.64,2.92-37.41-5.08-39.85-8.65-1.94-2.84-1.72-5.36-1.42-5.94,3.09-5.74,11.7-8.28,18.23-7.86,3.88.28,6.92,1.66,7.57,3.44,1.17,3.21,4.71,4.87,7.91,3.69,3.2-1.16,4.86-4.7,3.69-7.91-2.39-6.57-9.22-10.88-18.28-11.54-10.3-.71-24.12,3.41-30,14.32-2.83,5.26-2.06,12.55,1.95,18.56,1.8,2.69,4.45,5.49,8.31,7.91,1.02,2.48-1.74,5.63-3.54,7.32-11.95,11.27-40.67,18.19-54.8,10.08-1.25-.72-2.71-.97-4.14-.73-14.53,2.56-28.08.25-34.52-5.83-3.36-3.18-4.69-7.29-4.08-12.58,1.15-9.84,12.85-11.8,16.42-12.17,8.68-.91,16.32,2,17.38,5.18.54,1.62.54,2.71,0,3.23-1.25,1.19-4.21,1.5-5.71,1.27-1.73-1.74-4.43-2.33-6.81-1.32-3.13,1.34-4.58,4.98-3.24,8.11,2.75,6.41,12.68,6.59,18.8,4.26,8.17-3.11,11.58-10.75,8.68-19.45-3.7-11.09-18.35-14.81-30.37-13.55-15.44,1.59-25.94,10.42-27.41,23.03-1.07,9.16,1.65,17.1,7.86,22.97,7.08,6.7,18.37,10.22,31.49,10.21-2.44,1.31-5.42,2.64-9.09,3.89-19.12,6.55-43.66,7.43-54.71,1.96-3.06-1.52-6.76-.26-8.27,2.8-1.51,3.06-.26,6.76,2.79,8.27,6.92,3.42,16.27,4.86,26.21,4.86,13.05,0,27.1-2.48,37.99-6.22,7.82-2.68,17.63-7.25,22.62-14.21,4.44,1.27,9.24,1.91,14.23,1.91,17.41,0,36.66-7.1,47.14-16.99,3.83-3.61,6.23-7.52,7.19-11.42,1.31.33,2.65.64,4.11.9.16,2.79-.18,7.32-2.9,12.85-5.61,11.42-21.66,27.96-66.3,41.96-.89.28-1.64.77-2.29,1.36-10.38,4.57-13.32,10.97-14.05,15.07-1.39,7.84,3.35,15.81,12.36,20.82.68.38,1.84,1.13,1.9,1.85.2,2.59-4.45,8.31-8.79,11.74-4.15-.54-8.43-.23-12.73.93,1.27-8.6.06-17.25-3.85-25.17-6.95-14.08-20.8-23.11-38.01-24.81-20.61-2.02-43.12,4.42-57.29,16.44-4.9,4.15-8.34,8.62-10.19,13.17h-.22c-1.19,0-2.55.2-3.85.33.78-3.7,1.12-7.59.98-11.67-.62-17.69-12.04-28.65-21.21-37.47-8.4-8.07-13.09-12.94-11.83-19.23,1.63-8.14,5.91-9.27,18.07-11.35,8.44-1.44,18.94-3.23,29.55-9.83,12.96-8.07,19.54-19.6,18.04-31.67-1.18-9.51-7.39-17.39-15.82-20.08-.94-.31-1.88-.33-2.79-.19-6.11-2.48-15.25-1.71-26.08,6.89ZM597.45,492.6c5.7-18.05-3.9-29.59-14.06-41.81-3.12-3.75-6.34-7.62-9.43-11.98-4.93-6.94-5.92-14.7-2.7-21.27,3.54-7.23,11.42-11.79,21.09-12.2,14.71-.63,40.78-4.64,50.47-24.39-.56,6.04-4.89,11.95-12.32,16.58-8.55,5.32-17.35,6.82-25.11,8.15-11.59,1.98-24.72,4.22-28.1,21.09-2.65,13.24,6.52,22.05,15.38,30.56,8.35,8.02,16.98,16.31,17.42,29,.19,5.38-.73,10.25-2.63,14.55-3.54,1.28-7.06,2.76-10.32,4.62-7.5,4.29-13.41,9.79-17.55,16.13-.08.02-.15,0-.23.02-6.01,1.72-12.48,3.06-19,3.94,18.96-7.14,32.75-19.27,37.08-32.99ZM545.15,614.6c-1.22.92-2.5,1.84-3.68,2.74-5.03,3.77-9.92,7.45-14.49,10.26,2.34-8,1.94-16.3-1.48-23.44-2.53-5.27-6.46-9.14-11.2-11.26,2.49-6.23,3.43-12.66,2.61-19.08-1.53-12-5.81-20.7-12.74-25.88-2-1.5-4.02-2.54-5.93-3.26,2-4.42,3.7-10.3,3.45-17.16,2.3.86,4.64,1.57,7.02,2.16,9.43,6.81,22.45,9.47,36.16,9.47,6.96,0,14.07-.72,20.99-1.86-16.97,6.66-32.28,22.1-33.46,43.66-.97,17.88,5.7,28.26,12.74,33.66ZM459.42,628.12c.9,1.09,3.31,7.76.81,16.75-2.64,9.48-11.09,22.64-36.34,31.41-2.18.76-4.37,1.42-6.55,2.02,9.24-3.94,17.07-8.9,22.34-14.52,16.14-17.16,13.77-30.11,12.21-38.67-.76-4.16-1.11-6.41-.08-8.18,2.33-3.97,10.77-6.2,18.94-8.35,8.1-2.13,18.01-4.76,26.09-10.34-.34.41-.68.84-1.02,1.22-10.01,11.36-25.29,18.34-31.84,18.34-2.39,0-4.48,1.49-5.5,3.65-1.02,2.17-.6,4.83.93,6.67ZM456.19,504.5c7.16-2.24,24.14-1.83,30.94,13.89,6.5,15.04-3.18,26.44-3.57,26.89-1.71,1.92-2,4.7-.8,6.98,1.2,2.27,3.73,3.58,6.29,3.24.84-.08,5.83-.45,10.04,4.61,3.67,27.24-12.62,31.56-31.49,36.54-11.07,2.92-21.52,5.67-26.43,14.04-3.41,5.81-2.35,11.57-1.42,16.65,1.38,7.55,2.81,15.36-9.06,27.99-17.87,19.02-75.45,29.88-100.65,7.1-.34-.31-.76-.46-1.14-.68-1.26-1.69-2.08-3.35-2.35-4.88-.39-2.21-1.94-4.03-4.05-4.77-2.11-.72-4.46-.27-6.14,1.22-5.66,5.06-25,7.97-42.46,1.02-9.86-3.92-21.93-12.29-23.41-29.85-1.87-22.19,10.6-35.31,18.2-41.17,11.16-8.59,26.01-12.41,35.3-9.1,2.79,1,5.9-.13,7.4-2.69,1.5-2.56.97-5.82-1.27-7.77-.77-.68-1.87-2.78-1.91-5.37-.04-2.39.83-4.42,2.57-6.04.28-.26.43-.6.65-.9,13.24-6.6,24.62-15.72,33.14-26.98,5.94-7.85,10.12-16.3,12.44-24.96,1.4,1.6,2.94,3.15,4.62,4.61,5.39,4.69,17.4,12.68,36.93,13.87,3.74.66,9.44,3.46,13.86,9.28,4.36,5.76,8.43,16.08,3.02,32.53-5.62,17.13-20.63,23.52-31.78,23.8-.26.01-.53.01-.79.01-8.94,0-19.64-3.74-23.71-14.33-1.77-4.59.44-9.49,3.24-12.1,1.64-1.53,3.02-1.79,3.3-1.69,3.09,1.43,6.77.12,8.2-2.98,1.44-3.09.11-6.76-2.98-8.2-5.27-2.44-11.76-.98-16.95,3.85-5.93,5.53-10.19,15.58-6.34,25.57,5.23,13.6,18.97,22.24,35.19,22.24.38,0,.76,0,1.14-.01,19.97-.5,36.92-13.18,43.2-32.29,5.52-16.8,3.77-32.37-4.91-43.83-.85-1.13-1.76-2.15-2.68-3.13,5.7-.98,11.78-2.45,18.36-4.65,6.59-2.22,12.6-4.73,18.08-7.51.06-.01.12,0,.18-.02ZM328.78,450.14c8.93,5.88,15.16,14.44,17.11,24.29,2.81,14.23-1.16,29.36-11.18,42.6-5.72,7.55-13.17,14.03-21.73,19.3,13.98-11.41,22.77-26.73,25.42-44.69,2.98-20.17-2.78-33.28-9.61-41.49ZM386.83,371.15c9.09,1.71,30.47,7.72,32.49,26.39.21,1.95,1.33,3.67,3.01,4.66,1.68,1,3.74,1.13,5.54.36,15.73-6.7,39.47.86,49.76,22.73,3.74,7.96,8.98,23.75,2,40.08-6.49,15.2-21.84,26.96-45.64,34.95-13.8,4.64-25.17,5.92-34.41,5.41-.81-.11-1.57-.16-2.33-.19-14.61-1.34-23.46-7.19-27.54-10.74-7.95-6.91-9.92-14.29-9.31-17.56,2.82-15.08,11.02-22.38,24.16-21.7,7.07.36,11.26,2.86,11.47,6.85.15,2.79-1.53,4.67-2.09,4.76-3.37.53-5.67,3.69-5.13,7.06.53,3.37,3.75,5.73,7.06,5.13,7.46-1.18,12.95-8.91,12.49-17.6-.44-8.41-6.76-17.69-23.16-18.54-14.16-.6-25.05,5.13-31.53,16.44-7.44-14.47-22.26-25.31-40.55-28.92-22.14-4.38-42.53,2.94-53.2,19.06-5.86,8.85-6.01,22.35-.38,32.83,4.77,8.89,12.88,13.98,22.24,13.98,3.41,0,6.17-2.76,6.17-6.17s-2.76-6.17-6.17-6.17c-6.07,0-9.53-4.07-11.36-7.48-3.46-6.44-3.55-15.12-.2-20.18,1.65-2.49,3.62-4.5,5.72-6.28.58-.16,1.18-.3,1.71-.63,7.89-4.85,22.75-5.74,34.77,2.19,8.05,5.31,16.97,16.19,13.76,37.95-2.4,16.28-10.86,29.99-24.46,39.65-19.51,13.86-48.91,18.74-78.62,13.06-1.03-.18-2.02-.03-2.96.26-8.96-4.3-15.72-9.81-20.1-15.34-6.65-8.41-8.77-17.84-5.96-26.55.7-2.17.12-4.47-1.35-6.06-.17-1.97-1.16-3.82-3.01-4.87-7.43-4.2-12.54-12.32-14.01-22.28-1.34-9.08.68-17.95,5.15-22.61,4.54-4.74,8.96-5.73,14.56-7,6.57-1.49,14.02-3.17,21.1-11.18,5.59-6.33,5.72-12.47,5.83-17.42.15-7.14.29-13.88,24.12-25.35,40.34-19.43,84.41-13.89,90.62-5.5,2.03,2.73,5.88,3.33,8.63,1.29,1.28-.94,2.03-2.3,2.33-3.75.19-.31.42-.58.56-.93,1.59-3.06,18.11-7.92,38.21-4.11ZM159.51,451.47c1.54-14.32,10.22-22.25,17.24-26.38,6.87-4.05,13.27-5.22,16.9-5.22,1.26,0,2.18.14,2.68.35,2.31.96,4.99.43,6.78-1.34,1.77-1.78,2.29-4.47,1.29-6.79-1.97-4.58-1.78-9.51.55-14.62,3.55-7.8,15.53-22.82,55.81-35.77,31.56-10.16,51.42-6.08,61.81-1.66-22.06-3.7-53.96-.25-81.44,12.99-28.36,13.65-30.87,24.48-31.11,36.22-.09,4.09-.14,6.55-2.73,9.49-4.44,5.02-8.91,6.03-14.58,7.31-6.08,1.37-13.64,3.09-20.75,10.51-7.11,7.42-10.35,20.04-8.45,32.95.29,1.97.72,3.88,1.22,5.74-4.05-5.82-6.34-13.4-5.22-23.77ZM186.36,601.01c-9.27-8.93-12.96-19.53-10.69-30.65,2.64-12.95,12.28-23.4,21.45-28.17.79.72,1.66,1.37,2.5,2.05-10.44,10.39-22.41,31.48-12.7,56.79-.14.05-.28.11-.43.16-.05-.05-.07-.13-.12-.18ZM237.43,762.4c-2.76-.9-5.29-1.92-7.7-3,3.61,1.05,7.35,2,11.27,2.82,37.42,7.81,70.33-4.17,85.9-16.06,1.07,2.13,2.54,4.21,4.18,6.27-30.33,17.84-69.22,17.92-93.64,9.97ZM483.6,746.94c-1.99-.19-4.02.68-5.32,2.19-.14.16-14.76,16.46-64.94,18.36-36.45,1.35-60.53-9.77-70.88-20.65-.7-.74-1.26-1.48-1.84-2.22,12.09,8.31,33.09,18.73,62.42,18.73,8.87,0,18.49-.95,28.85-3.2,14.81-3.23,22.56-7.34,29.39-10.96,8.38-4.46,15-7.97,33.74-9.11,18.12-1.1,33.18-6.61,45.71-14.34-24.87,23.69-56.8,21.2-57.13,21.19ZM593.73,643.45c-3.29,2.8-6.12,6.57-8.86,11.09-.64.48-1.19,1.1-1.61,1.84l-1.93,3.45c-12.67,22.66-36.26,64.83-87.07,67.93-21.41,1.3-29.84,5.78-38.78,10.53-6.43,3.41-13.08,6.94-26.22,9.8-58.66,12.77-90.25-20.35-91.63-21.82-2.3-2.5-6.2-2.66-8.71-.37-.75.69-1.22,1.53-1.55,2.43-1.3.69-2.39,1.81-2.98,3.22-2.33,5.5-36.33,27.91-80.87,18.59-24.98-5.21-43.45-15.67-50.69-28.7-3.51-6.32-4.16-12.96-1.87-19.21.74-2.01.38-4.26-.95-5.94-1.32-1.68-3.41-2.61-5.56-2.31-3.68.43-10.11-1.62-16.2-7.14-4.96-4.5-13.22-14.55-12.93-31.37.49-27.96,22.94-39.66,41.68-44.54,1.82-.48,3.33-1.76,4.09-3.48.76-1.72.69-3.7-.19-5.37-14.4-27.31,4.78-46.74,9.11-50.64,13.71,7.66,30.91,11.91,49.46,11.91,3.26,0,6.57-.13,9.89-.39,9.27-.74,18.14-2.62,26.56-5.31,0,.33-.09.63-.08.96,0,.71.05,1.41.13,2.1-11.36.08-24.2,4.65-34.85,12.85-9.59,7.38-25.33,23.96-22.97,51.99,1.57,18.6,12.63,32.91,31.15,40.28,15.82,6.3,35.64,6.44,48.13,1.09,3.15,5.16,8.45,10,15.69,14.26,13.27,7.81,32.99,13.44,54.79,13.44,12.92,0,26.56-1.98,40.02-6.66,30.95-10.75,41.26-28.11,44.46-40.78,1.73-6.84,1.58-13.34.35-18.5,10.17-3.03,23.08-10.51,32.35-21.03,1.14-1.29,2.19-2.6,3.17-3.92,3.34.95,5.22,3.92,6.1,5.78,2.96,6.18,2.51,16.43-5.17,25.39-1.59,1.85-1.94,4.47-.88,6.67,1.05,2.2,3.32,3.5,5.75,3.51,11.5-.34,22.31-8.45,34.82-17.86,9.25-6.94,19.73-14.82,31.19-19.67,22.19-9.4,69.23-11.63,104.67,39.5,6.53,9.42,13.55,15.31,20.02,18.97-10.82.33-20.42-5.59-29.61-17.5-8.61-11.16-22.32-18.71-36.69-20.21-10.95-1.15-27.58.56-44.73,15.17ZM637.18,640.56c11.07,1.16,21.61,6.94,28.2,15.48.16.21.33.39.5.6-14.56,4.19-30.81,3.77-41.14-1.59-4.96-2.57-8.18-6.2-9.81-10.69,7.22-3.27,14.75-4.59,22.26-3.8ZM707.8,695.23c-13.94-1.12-25.98-2.58-35.65-3.76-23.45-2.85-36.38-4.42-44.48,2.29-4.08,3.38-6.29,8.51-6.77,15.7-.41,6.06-4.52,12.13-11.02,16.22-.81.51-1.64.98-2.47,1.4,4.39-5.88,7-13.44,4.82-22.51-2.06-8.6-1.42-15.67,1.9-21.02,3.65-5.87,10.78-10.03,21.21-12.37.15-.04.27-.14.41-.18,3.4.49,6.9.83,10.51.83,9.61,0,19.65-1.85,28.89-5.31,15.94,13.97,34.43,15.55,55.12,4.57,2.61-1.39,3.84-4.42,2.98-7.25-.87-2.83-3.64-4.64-6.59-4.33-.43.05-7.07.64-15.57-4.12,11.01-5.42,19.18-12.45,24.4-21.05,5.02,5.04,12.3,7.64,21.74,7.64.86,0,1.68-.19,2.43-.5,5.72,9.6,16.07,16.14,29.46,18.42,8.1,1.37,16.13,2.04,23.85,2.04,2.28,0,4.51-.1,6.73-.22-17.71,21.78-66.58,37.16-111.88,33.52ZM841.96,666.22c-7.48,6.85-17.88,13.56-30.75,18.94,11.09-7,19.53-15.52,24.09-25.31,5.78-1.11,11.18-2.62,15.97-4.59-1.98,3.26-4.96,6.97-9.31,10.95ZM902.11,611.37c-10.4,7.24-23.05,9.9-30.75,6.44-2.06-.93-4.45-.65-6.25.72-1.8,1.36-2.71,3.6-2.38,5.83.69,4.62-.83,8.68-4.63,12.4-11.43,11.2-38.95,15.7-66.93,10.95-10.3-1.75-17.72-6.38-21.46-13.38-3.38-6.34-3.45-14.46-.18-21.71,4.07-9.05,12.62-11.97,19.15-11.75,5.4.2,9.96,2.53,11.08,5.64,1.61,4.47-.36,7.23-1.15,7.69-3.28.15-5.9,2.85-5.9,6.17s2.76,6.17,6.17,6.17c3.98,0,7.93-2.25,10.58-6.02,3.51-4.99,4.23-11.8,1.92-18.2-2.87-7.97-11.59-13.39-22.22-13.8-10.48-.24-24.29,4.38-30.88,19.03-3.18,7.07-4.13,14.75-2.96,21.96-5.09-.27-8.92-1.55-11.24-3.94-2.06-2.12-2.6-4.64-2.74-6,4.05-19.01-4.78-33.45-15.6-39.2-9.74-5.19-20.33-3.44-26.37,4.32-2.09,2.69-1.61,6.57,1.09,8.66,2.68,2.1,6.57,1.6,8.66-1.08,2.74-3.53,7.38-2.83,10.83-1.01,6.67,3.55,11.73,12.23,9.64,24.3-.36.72-.59,1.52-.64,2.38,0,0,0,.14,0,.19-.24.96-.4,1.89-.73,2.88-3.65,11.12-13.08,19.73-27.93,25.7-1.8-1.93-3.6-4.15-5.37-6.71-39.95-57.64-93.99-54.68-119.63-43.84-6.85,2.9-13.18,6.64-19.11,10.61-3.41-1.25-12.44-6.35-11.41-25.16,1.1-20.18,18.99-33.28,35.26-35.38,2.81-.36,5.01-2.59,5.34-5.4,1.44-12.14,9.79-19.65,16.54-23.81,11.01-6.79,23.25-8.18,25.78-7.26,1.84.81,3.96.67,5.68-.38,1.72-1.04,2.82-2.86,2.95-4.86.22-3.23,2.91-7.26,7.38-11.06,9.63-8.16,28.24-15.51,48.1-13.57,12.86,1.27,23.12,7.82,28.14,17.99,4.87,9.85,3.98,21.43-2.43,31.78-9.27,14.94-32.57,26.24-47.91,23.26-6.47-1.26-10.15-4.95-11.24-11.27-1.28-7.45,1.65-11.77,4.34-14.08,3.65-3.15,8.62-4.1,11.29-3.2,3.25,1.1,6.73-.67,7.81-3.9,1.08-3.24-.67-6.73-3.9-7.81-7.24-2.43-16.58-.18-23.24,5.54-7.23,6.22-10.23,15.29-8.46,25.55,1.98,11.48,9.45,19.04,21.05,21.29,20.39,3.98,48.77-9.53,60.76-28.86.55-.88.97-1.79,1.46-2.68,8.68-5.67,15.5-5.31,19.73-3.94,4.87,1.59,8.03,4.99,8.9,7.47.92,2.59,3.45,4.23,6.18,4.11,2.74-.16,5.05-2.12,5.66-4.79.04-.18.15-.37.2-.56.79-.33,1.54-.8,2.16-1.47,4.85-5.19,21.8-9.1,35.56-6.14,6.46,1.39,14.77,4.8,17.61,13.17,1.74,5.11,4.6,11.39,11.34,14.69,7.23,3.53,17.24,2.86,31.51-2.1,7.93-2.77,21.1-2.77,32.62,3.41,6.15,3.3,14.14,9.78,17.24,21.87.12.46.36.86.57,1.27,0,.06.02.11.02.17,1.09,16.53-11.27,27-16.64,30.73ZM1037.19,637.43c8.98,3.95,8.94,8.71,8.87,11.35-.09,3.77-3.08,6.4-8.13,8.5,3.64-8.78,1.81-15.47-.74-19.85ZM1043.73,690.53c-12.22,3.19-28.78,4.14-43.4,4.97-27.06,1.56-46.61,2.68-47.12,16.2-.47,12.24,10.19,20,21.71,25.06-13.75-3.54-29.08-9.68-34.96-18.64-2.53-3.86-3-7.84-1.47-12.5,3.67-11.21,23.47-17.89,42.63-23.07.02,0,.05,0,.08-.01.09-.03.18-.05.27-.08,3.45-.93,6.89-1.82,10.19-2.67,1.67-.43,3.29-.85,4.92-1.27,5.26-1.07,10.66-1.94,15.97-2.8,22.31-3.62,45.39-7.35,45.85-26.64.57-23.73-28.65-28.48-54.17-29.98-.38-.02-.72.11-1.09.16-15.88-3.21-33.68-3.73-46.44-3.52-19.35.36-29.57-4.99-33.67-7.89,5.44-7.8,8.2-16.72,8.03-25.98,5.24,1.04,11.27,1.75,17.65,1.75,11.82,0,24.7-2.38,35.4-9.27,4.94,3.15,15.61,7.97,36.02,9.48,17.53,1.3,74.52,9.99,71.97,67.14-.01.3.1.56.13.84-8.7,25.24-35.26,35.26-48.51,38.72Z"/>
  <path class="cls-1" d="M2505.32,664.37c-.62-3.13-3.57-5.32-6.7-4.94-42.43,4.45-47.34-8.46-54.79-28.03-3.95-10.36-8.65-22.59-19.45-33.71-.17-.7-.41-1.39-.84-2.03-22.31-33.28-58.52-45.83-109.88-37.96,5.27-6,7.51-11.58,9.13-15.66.55-1.38,1.3-3.27,1.5-3.57,1.15-.72,6.05-2.19,9.98-3.38,19.34-5.82,51.69-15.55,53.2-41.13.58-9.76-3.53-19.49-11.87-28.13-19.92-20.64-61.6-32.92-109.16-32.41-.61-2.51-1.35-5.02-2.25-7.52-14.91-41.47-50.66-50.05-65.63-51.81-.3-10.22-5.38-21.36-13.96-29.94-9.14-9.14-30.24-23.28-68.69-15.24-32.21,6.73-42.79,19.95-50.51,29.61-6.16,7.7-9.28,11.61-21.01,10.97-22.67-1.19-32.97,8.14-37.62,15.82-2.45-.43-4.92-.84-7.44-1.12-1.24-.14-2.38.21-3.42.74-3.41-.95-6.93-1.78-10.69-2.36-25.86-4.01-44.63.47-58.01,7.53,4.33-18.33,1.5-38.13-8.65-54.38-14.85-23.78-42.77-35.86-76.57-32.94-.84.07-1.63.31-2.34.67-14.99-2.15-31.56-.66-48.47,4.94-19.11-19.28-52.5-17.74-76.19-10.14-24.99,8.01-42.7,22.76-47.09,38.67-17.56.54-60.47,9.43-72.8,55.7-5.45,20.42-2.83,41.14,7.18,59.08-1-.78-2.05-1.59-3.16-2.47-16.67-13.1-41.85-32.91-91.57-19.75-31.19,8.25-43.15,27.5-53.7,44.48-9.3,14.96-17.33,27.88-37,33.64-36.36,10.68-50.52,1.4-64.2-7.56-2.75-1.8-5.45-3.57-8.25-5.17-20.78-11.86-58.63.13-72.32,22.95-1.49,2.48-1.06,5.66,1.03,7.64,2.08,1.99,5.28,2.27,7.68.67,7.54-5.03,34.49-12.45,49.95,9.48,16.3,23.14,48.76,44.66,91.06,35.72,20.27-4.3,34.47-14.86,46.99-24.17,18.21-13.55,31.37-23.35,56.37-10.69,13.06,6.61,21.38,14.6,29.42,22.34,7.85,7.55,15.99,15.28,27.86,20.82-.06.1-.14.17-.2.26-6.25,9.55-7.42,21.18-3.49,31.7-11.72,6.19-18.58,19.08-18.31,35.23.47,28,22.63,63.28,70.19,74.56,18.76,4.46,36.55,6.21,52.71,6.21,35.49,0,63.11-8.46,75.8-15.34,11.05,6.4,38.79,13.61,79.28,5.19,4.54-.72,9.24-1.71,14.16-3.1.57-.16,1.03-.48,1.51-.78,3.56-1.02,7.18-2.15,10.9-3.42,45-15.39,52.85-37.35,53.53-49.06.18-3.09-.1-5.95-.68-8.58,2.12.75,4.33,1.52,6.6,2.3.04.7.14,1.41.44,2.1.62,1.43,15.34,34.06,70.54,29.21,6.24,22.38,33.28,53.57,101.15,53.57,9.92,0,20.72-.67,32.44-2.13,65.77-8.16,88.44-30.14,117.14-57.95,11.13-10.78,23.74-23.01,40.36-35.75,1.58-1.21,2.31-3.03,2.32-4.88,23.64-11.44,56.75-19.04,81.82-14.69,15.5,2.68,26.2,9.42,31.81,20.03,25.33,47.93,95.58,28,98.57,27.13,3.06-.9,4.94-3.98,4.32-7.12ZM2387.33,578.48c-26.63-4.68-66.48-1.46-112.95,9.64-26.52,6.33-39.06,3.09-44.94-.81.68.01,1.3.08,1.98.08,11.12,0,23.8-1.61,37.78-5.6,5.16-1.48,9.78-3.04,13.96-4.66,45-12.73,79.48-12.32,104.16,1.36ZM2366.71,474.4c4.11,4.25,8.9,10.97,8.44,18.84-1,16.97-28.19,25.14-44.43,30.03-7.59,2.29-11.34,3.46-13.75,5.27-2.99,2.25-4.28,5.5-5.65,8.95-1.46,3.68-3.39,8.46-8.36,13.58.25-1.25.48-2.49.7-3.69,1.71-9.37,3.18-17.46,14.45-24.42,5.93-3.66,13.91-5.26,21.62-6.81,14.28-2.86,32.04-6.43,30.01-26.75-2.25-22.51-41.91-36.87-101.4-37.09.09-2.16.08-4.35-.05-6.54,51.73-.33,84.7,14.42,98.42,28.64ZM1908.07,342.26c11.4,18.26,11.62,42.98.55,61.52-.18.3-.21.64-.34.95-8.39,9.27-13.07,19.74-14.23,27.89-.52.08-1.09.28-1.62.39-9.12-10.18-6.43-17.21.06-30.52,7.35-15.07,17.41-35.71-1.53-66.86-4.24-6.98-9.66-12.86-15.92-17.71,14.19,4.17,25.56,12.36,33.04,24.34ZM1340.82,528.53c-10.81-15.35-25.98-20.24-39.89-20.21,13.03-6.39,28.54-7.73,37.32-2.71,2.58,1.48,5.08,3.12,7.61,4.77,15.28,10,32.58,21.33,74.44,9.08,24.19-7.1,34.27-23.31,44.01-38.98,10.25-16.49,19.93-32.07,46.38-39.06,43.74-11.56,64.29,4.56,80.78,17.52,8.65,6.81,16.88,13.18,26.62,13.04,10.82,10.25,24.43,18.08,39.41,22.8-15.31,5.67-26.38,15.22-31.82,27.95-4.85,11.35-4.75,24.42-.17,36.32-.75-.35-1.58-.57-2.47-.59-13.29-.26-23.63-8.87-40.76-23.12-6.13-5.1-13.08-10.88-21.23-17.14-34.96-26.86-59.04-28.09-92.06-4.71-6.35,4.5-12.67,9.53-18.78,14.38-23.02,18.31-44.75,35.61-70.42,29.11-.53-.14-1.06-.09-1.59-.08-16.42-5.78-29.25-16.83-37.38-28.37ZM1530.73,525.48c-31.82-16.09-50.88-1.92-69.32,11.8-7.1,5.27-14.37,10.63-22.71,14.93,6.52-4.61,12.89-9.66,19.2-14.68,5.98-4.75,12.16-9.67,18.23-13.97,28.57-20.23,46.65-19.2,77.4,4.42,7.96,6.11,14.81,11.82,20.86,16.84,10.24,8.52,18.56,15.35,26.93,19.91-3.56,1.44-6.79,3.26-9.69,5.41-12.2-4.66-19.82-11.89-28.49-20.22-8.29-7.98-17.69-17.01-32.4-24.46ZM1755.87,699.83c-11.01,7.7-60.46,24.26-122.4,9.57-23.19-5.5-39.39-17.31-49.19-30.75,37.14,31.94,123.82,38.81,173.65,12.54,3.33,3.69,8.99,9.13,16.96,14.22-6.04-1.72-9.76-3.61-10.84-4.58-2.07-2.36-5.59-2.79-8.18-.99ZM2127.47,725.34c-83.22,10.33-117.98-22.26-121.04-46.7-.2-1.63-1.05-3.11-2.34-4.12-1.3-1-2.94-1.41-4.57-1.24-32.62,4.21-49.32-5.56-57.2-13.23,24.54,5.2,46.72,1.83,56.94-.4,5.99,15.75,28.04,56.49,95.78,56.49,3.76,0,7.67-.13,11.72-.39,51.57-3.34,86.19-13.89,112.2-27.6-20.92,18.19-43.87,31.29-91.48,37.2ZM2413.35,638.59c-7.38-13.97-21.43-23.11-40.62-26.43-39.28-6.78-91.39,11.1-113.55,31.41-29.66,27.19-65.92,54.2-153.23,59.86-82.89,5.33-96.05-50.09-96.56-52.43-.36-1.69-1.41-3.16-2.89-4.04-1.49-.89-3.28-1.11-4.93-.6-.34.1-34.21,10.09-68.49-1.59-4.17-1.42-8.08-2.8-11.76-4.09-28.85-10.14-46.26-16.26-69.35-1.95-2.9,1.8-3.8,5.6-2,8.5,1.8,2.9,5.6,3.8,8.5,2,13.71-8.49,24.38-7.96,40.92-2.92.42.37.82.76,1.35,1.01,2.43,1.16,5.84,6.12,5.44,13.08-.4,6.94-5.61,24.55-45.2,38.09-8.72,2.98-16.82,5.13-24.44,6.75-48.44,7.8-70.99-23.94-71.99-25.4-1.83-2.71-5.47-3.53-8.29-1.85-50.77,30.4-143.05,17.51-169.7-14.49-10.93-13.11-9.15-28.09,5.28-44.52.34-.39.51-.84.73-1.28.1-.19.29-.33.37-.53.02-.05,0-.1.02-.15.31-.84.44-1.72.38-2.59-.01-.16-.1-.3-.12-.46-.11-.7-.32-1.39-.67-2.03-.05-.08-.04-.19-.09-.27-4.85-7.87-4.8-17.45.12-24.98,7.29-11.14,23.21-15.89,43.6-13.02,2.44.33,4.87-.8,6.15-2.93,1.28-2.12,1.16-4.8-.29-6.81-7.96-10.99-9.87-24.91-5-36.33,5.76-13.47,20.51-22.49,41.54-25.37,8.27-1.14,16.36-1.85,24.22-2.24.48-.02.96-.05,1.44-.08,40.64-1.79,74.31,6.2,87.62,21.73,5.64,6.58,7.13,13.96,4.57,22.56-.96,3.23.84,6.63,4.06,7.65,9.43,2.97,9.37,7.98,8.23,14.69-.37,2.23.5,4.48,2.28,5.87,2.7,2.12,5.27,6.53,4.37,12.52-.82,5.43-5.96,19.3-36,30.85-18.22,7.02-34.41,4.91-43.32-5.61-5.18-6.11-5.91-12.92-3.97-16.23,3.12-5.29,7.2-6.94,10.06-7.39.7-.11,1.36-.15,1.96-.15,2.2,0,3.63.46,3.72.52,1.52,3.06,5.23,4.29,8.28,2.76,3.05-1.53,4.29-5.23,2.76-8.28-2.15-4.3-7.53-7.11-14.05-7.33-9.45-.24-18.17,4.76-23.38,13.61-4.98,8.46-2.85,21,5.19,30.47,4.68,5.51,22.59,22.47,57.17,9.15,34.79-13.38,42.36-31.14,43.77-40.54,1.21-8.06-1.14-15.99-6.21-21.53,1.05-10.77-2.93-18.49-11.84-23.02,1.65-10.51-1.17-20.31-8.28-28.61-4.27-4.97-10.12-9.27-17.17-12.89,18.77-7.12,33.06-20.94,40.17-39.7,9.34-24.63,4.77-53.33-11.64-73.13-17.16-20.69-44.19-28.94-76.12-23.28-15.58,2.77-28,10.74-34.96,22.44-6.6,11.09-7.77,24.55-3.32,37.92.94,2.82,3.74,4.58,6.69,4.17,2.94-.4,5.18-2.84,5.33-5.81.9-17.75,21.28-26.18,40.92-25.65,21.26.75,42.48,12.27,41.99,36.29-.21,10.68-5.31,20.37-15.15,28.8-15.96,13.69-44,22.87-72.12,24.72-1.35.05-2.73.13-4.1.19-8.34.34-16.65.05-24.59-1.01-25.52-3.41-48.45-16.97-61.35-36.29-10.92-16.36-13.97-35.24-8.81-54.58,12.83-48.1,64.53-46.5,65.02-46.45,1.72.27,3.48-.18,4.85-1.26,1.37-1.09,2.21-2.7,2.31-4.44.79-12.6,17.05-26.44,39.54-33.64,22.96-7.35,52.2-7.28,65.8,9.45,1.67,2.05,4.46,2.82,6.92,1.9,37.94-13.93,72.84-5.81,88.96,20.67,15.45,25.39,8.1,40.46.99,55.03-5.8,11.89-12.24,25.23-1.1,40.57-9.21,4.97-18.31,13.14-23.89,23.67-5.39,10.18-11.39,30.52,7.76,53.86,1.48,17.81,7.53,40.66,37.59,48,2.02,21.67,24.25,44.47,82.04,48.74,4.65.34,9.06.51,13.23.51,32.09,0,50.17-9.52,59.95-18.07,9.17-8.03,14.78-18.68,15.4-29.21.51-8.7,7.76-10.86,9.96-11.31,4.15-.84,8.19.28,9.37,2.63,1.53,3.04,5.24,4.27,8.28,2.76,3.05-1.53,4.29-5.23,2.76-8.28-3.47-6.93-11.53-10.57-20.51-9.53-.39-.05-.74-.19-1.16-.16-17.98.61-23.54,8.05-28.91,15.23-4.95,6.63-10.56,14.13-29.49,20.1-32.03,10.12-87.2,2.42-110.29-22.64-.16-.17-.38-.25-.56-.4-.36-.31-.72-.61-1.15-.83-.33-.17-.66-.27-1.01-.37-.27-.08-.49-.24-.77-.29-26.58-4.58-31.34-21.8-32.54-39.73-.09-1.34-.61-2.61-1.49-3.63-12-13.87-14.6-28.26-7.53-41.6,7.58-14.31,24.36-23.46,32.05-22.44,1.92.23,3.82-.46,5.16-1.84,1.34-1.39,1.95-3.32,1.66-5.23-.72-4.71,2.92-16.38,13.04-26.48,10.39-10.36,29.94-21.58,64.09-16.31,33.63,5.21,49.86,28.16,51.03,48.58.74,12.95-4.89,28.55-22.93,33.52-27.64,7.59-38.37-5.7-41-9.96-3.62-5.85-3.6-11.98-1.5-14.32,2.28-2.53,2.07-6.44-.46-8.72-2.53-2.27-6.44-2.06-8.72.47-6.2,6.9-6.13,18.85.18,29.06.51.82,1.24,1.89,2.19,3.09.11.77.36,1.54.79,2.25,10.65,17.98,27.82,27.88,47.4,27.87,4.14,0,8.39-.44,12.71-1.34,24.68-5.16,43.84-24.34,46.59-46.63,2.1-17.06-2.1-32.78-12.15-45.45-8.9-11.21-22.2-19.73-37.86-24.7,3.78-3.81,10.86-7.4,24.18-6.67,18.09.97,24.79-7.46,31.28-15.58,7.28-9.1,15.53-19.42,43.4-25.25,32.79-6.85,50.06,4.52,57.44,11.89,8.78,8.78,11.36,19.22,10.01,25.67-.38,1.84.1,3.75,1.3,5.2,1.19,1.45,2.84,2.24,4.87,2.24,1.78.1,44.58-.24,60.52,44.09,5.56,15.47,4.55,30.99-2.86,43.68-8.63,14.79-25.39,24.99-47.2,28.73-21.75,3.73-36.26-5.11-42.57-14.62-4.43-6.69-5.15-14.03-1.86-19.16,4.74-7.42,10.98-10.92,17.16-9.69,4.67.96,8.17,4.5,8.93,9.04.56,3.36,3.73,5.66,7.1,5.08,3.36-.56,5.64-3.74,5.08-7.1-1.6-9.62-8.91-17.11-18.63-19.1-11.26-2.28-22.5,3.35-30.04,15.13-5.96,9.31-5.21,21.82,1.97,32.64,7.16,10.8,21.8,21.02,42.89,21.02,3.81,0,7.83-.34,12.06-1.06,25.47-4.36,45.28-16.67,55.78-34.68,2.82-4.83,4.82-10.01,6.17-15.36h.58c60.48,0,89.24,15.08,90.33,26.02.8,8.05-3.57,10.09-20.15,13.42-8.37,1.68-17.86,3.58-25.68,8.41-15.95,9.84-18.25,22.53-20.11,32.72-1.94,10.64-3.22,17.67-18.72,21.96-.31.08-.54.29-.82.42-3.68,1.13-7.35,2.27-11.15,3.55-.02,0-.03.02-.05.03-29.53,7.31-52.14,3.16-63.67-3.64-4-2.36-5.49-4.37-5.82-5.14.75-3.09-.97-6.29-4.05-7.31-3.23-1.07-6.73.67-7.81,3.9-.85,2.56-1.45,7.74,4.19,13.62,4.99,5.21,15.12,10.53,29.29,13.14,1.18,3.17,3.6,7.5,8.74,11.22,11.35,8.22,30.06,9.3,55.62,3.2,58.84-14.05,107.33-15.31,126.53-3.27,17.98,11.27,23.34,25.34,28.52,38.93,3.77,9.9,7.44,19.56,15.53,26.49-13.73-2.72-26.93-9.4-34.48-23.69ZM1764.7,493.33c-3.82-1.06-7.79-2.01-11.98-2.8,12.57-4.47,24.13-10.54,33.29-18.39,12.44-10.67,19.17-23.79,19.45-37.92.65-32.25-27.48-47.94-53.9-48.87-15.46-.57-31.38,3.8-41.81,12.99.63-1.72,1.42-3.39,2.37-4.98,5.1-8.57,14.51-14.47,26.51-16.6,27.35-4.87,50.25,1.87,64.45,19.01,13.62,16.43,17.39,40.32,9.6,60.87-7.53,19.86-24.12,32.73-46.71,36.23-.46.07-.85.3-1.27.47ZM1920.11,575.7c20.3,12.12,47.11,17.37,70.81,17.37,13.4,0,25.8-1.67,35.46-4.71,19.51-6.16,27.78-14.4,33.18-21.23-1.15,6.38-4.85,12.79-10.72,17.93-9.27,8.12-27.9,17.22-64.14,14.55-35.71-2.65-55.54-12.65-64.6-23.9ZM2032.35,407.59c6.09,3.7,11.33,8.15,15.4,13.28,8.06,10.16,11.28,22.37,9.56,36.27-2.11,17.13-17.27,31.96-36.86,36.05-8.75,1.83-17.1,1.13-24.6-1.66,5.53-.01,11.76-.81,18.83-2.75,20.71-5.7,33.26-23.8,31.98-46.12-.68-11.89-5.4-24.43-14.31-35.06Z"/>
  <path class="cls-1" d="M3920.7,548.66c-1.42-1.86-3.78-2.77-6.07-2.3-3.18.61-6.23,1.37-9.27,2.13-13.5,3.36-25.17,6.29-48.17-3.95-20.12-8.94-37.22-11.94-53.71-8.93,6.26-12.67,5.55-26.4,1.31-37.41-4.53-11.76-15.13-22.89-30.28-26.95,6.47-18.27,4.52-36.21-5.8-49.95-10.49-13.97-28.35-21.57-47.72-20.77-.23-24.51-17.05-50.83-55.53-57.18-19.99-3.29-35.38,2.11-47.72,6.45-10.83,3.82-19.38,6.82-28.06,3.54-5.35-2.02-10.36-3.56-15.14-4.8.91-13.96-4.56-28-15.45-39.02-17.35-17.54-45.2-25.25-76.41-21.15-.74.1-1.4.37-2.03.69-30.35,1.72-52.78,18.56-61.19,34.03-12.64-4.47-32.25-4.91-48.35,2.31-13.55,6.08-22.41,16.42-25.95,29.99-17.53,2.4-26.68,8.59-34.97,14.24-8.03,5.47-14.97,10.21-29.88,10.64-12.48.37-23.84,2.91-33.62,7.25,3-9.14,4.19-18.47,3.48-27.1-2.34-28.65-23.32-48.75-54.74-52.45-.39-.05-.74.06-1.12.08-13.07-3.02-25.85-1.71-31.76.16-2.48.83-8.3-1.62-15.02-4.41-6.67-2.77-15.01-6.13-25.33-8.93-.34-.25-.61-.57-1.01-.75-37.56-17.76-77.97-20.43-110.86-7.29-22.19,8.85-38.49,24.24-45.89,43.33-.23.6-.27,1.21-.31,1.82-21.18,6.49-38.27,20.89-48.86,35.31-15.75,21.45-20.87,46.02-13.35,64.12,3.3,7.96,5.16,15.45,6.66,22.32-10.84.99-23.04,7.08-32.27,16.58-8.33,8.58-12.94,18.39-13.4,28.27-10.67.45-23.69,5.71-33.86,13.87-30.79-22.57-88.61-2.1-150.29,23.02-18.95,7.72-33.66,9.01-42.52,3.73-7.93-4.73-8.97-13.4-9.01-13.72-.27-2.97-2.63-5.32-5.6-5.58-3.01-.25-5.71,1.63-6.5,4.52-3.2,11.67-.83,22.1,6.86,30.17,16.08,16.86,52.17,19.52,79.5,13.38,20.52-4.6,33.48-4.83,38.51-.69,1.52,1.26,3.53,3.8,3.31,11.31-.04,1.37-.11,2.8-.17,4.29-.9,20-2.4,53.46,53.49,58.11,48.5,4.06,95.89-10.96,119.12-29.09,1.85,4.27,4.64,8.52,8.16,12.29,9.89,10.56,24.37,16.54,40.77,16.83,16.77.3,24.68,7.63,32.33,14.71,5.37,4.98,10.93,10.13,18.85,11.54,2.91.52,5.75.74,8.46.74,13.71,0,24.2-5.58,24.73-5.86.08-.04.12-.12.2-.17,8.43,2.72,16.99,2.94,22.68,2.63,1.96,10.34,10.01,28.62,41.8,35.69,5.06,1.12,9.82,1.62,14.28,1.62,27.65,0,44.05-19.09,49.69-27.05,12.12.43,49.96-1.01,76.15-32.75,3.84-4.65,6.79-9.19,9.14-13.61,13.79,18.64,38.53,23.74,57.64,21.27.09,2.48.57,4.94,1.22,7.38-18.26-4-39.87,2.44-62.94,19.21-24.4,17.74-55.03,20.75-62.93,16.4-2.56-1.41-5.75-.84-7.66,1.39-1.9,2.21-1.99,5.46-.21,7.78.86,1.13,21.58,27.37,60.51,15.61,35.97-10.83,45.27-8.05,58.63,7.14,18.37,20.9,57.7,24.63,79.03,19.3,18.37-4.59,29.56-1.42,45.79,4.32,9.5,3.36,21.41,5.49,33.66,5.49,21.44,0,43.94-6.52,56.49-24.31,37.26-1.74,84.59-23.05,101.91-57.11.11-.21.1-.43.18-.64,1.54-.33,3.04-.65,4.47-.96,12.89-2.77,22.21-4.77,34.03-4.55,38.58.83,70.98-9.53,87.06-27.41,5.64-6.27,8.87-13.08,9.54-19.98,20.82-3.07,35-5.82,48.32-20.87,12.07-13.65,21.82-19.79,41.7-15.44,26.01,5.72,60.01-2.98,71.93-27.44,1.02-2.1.77-4.6-.66-6.46ZM3793.26,502.63c2.46,6.4,7.64,26.04-12.51,40.99-3.19,1.68-6.4,3.6-9.64,5.73-.91.45-1.74.91-2.72,1.34-.95.42-1.68,1.09-2.29,1.84-20.38,12.17-34.66,8.26-40.2,5.75-1.62-4.97-5.98-14.84-16.32-21.21-10.01-6.16-22.77-7.35-37.88-3.7-.28-2.85-.85-5.58-1.63-8.19,3.86.71,7.96,1.15,12.22,1.15,9.52,0,19.57-1.92,28.06-6.39,10.33-5.44,16.5-13.81,17.84-24.19,1.43-11.07-5.57-20.24-17.42-22.81-10.95-2.41-21.12,1.97-23.63,10.12-1,3.26.83,6.71,4.09,7.72,3.27,1,6.71-.83,7.72-4.09.36-1.18,4.21-2.77,9.21-1.68,2.62.57,8.63,2.6,7.78,9.17-.81,6.31-4.63,11.31-11.35,14.85-12.96,6.83-32.16,6.06-41.95,1.05-.37-.19-.77-.21-1.15-.32-4.44-4.71-9.74-7.38-15.28-7.83,1.45-8.93,1.06-18.68-1.41-28.88-1.19-4.9-2.63-9.08-4.2-12.73,5.2,1.42,10.68,2.16,16.23,2.16,4.2,0,8.45-.42,12.65-1.28,17.48-3.58,31.07-11.78,39.91-23.62,19.17-9.44,31.09-.16,36.51,6.28,8.3,9.86,10.08,23.18,6.12,28.5-1.46,1.96-1.62,4.62-.4,6.75,1.22,2.13,3.62,3.33,6.03,3.07,20.97-2.28,32.28,11.8,35.62,20.47ZM3604.5,602c7.27,4.71,17.78,7.18,29.2,7.18,6.23,0,12.73-.74,19.13-2.24,27.61-6.53,34.41-24.74,31.84-38.34-1.73-9.18-7.46-16.56-14.38-19.65.27-.95.42-1.91.62-2.85.32-.04.63.02.95-.07,2.01-.57,3.94-1,5.83-1.37,12.83,10.91,17.38,26.09,12.17,40.6-5.12,14.27-21.37,29.67-51.59,30.11-20.46.33-34.83-5.24-38.88-15.2-.45-1.12-.72-2.3-.91-3.51,1.69,1.97,3.62,3.8,6.01,5.35ZM3758.84,428.71c5.9,7.85,8.08,17.43,6.67,27.81-1.51-7.13-4.95-14.42-10.18-20.63-9.89-11.74-23.41-16.54-37.83-13.95.98-2.86,1.75-5.85,2.33-8.96,15.99-1.16,30.68,4.64,39.01,15.73ZM3621.83,361.44c12.17-4.27,24.76-8.68,41.62-5.92,35.08,5.79,46.26,29.45,45.17,47.95-.83,14.02-7.33,38.59-41.62,45.62-17.81,3.67-32.45-2.69-40.2-9.86-5.5-5.08-8.29-10.96-7.66-16.14.83-6.73,6.35-10.31,11.24-11.41,4.77-1.09,10.82-.2,13.58,4.15,1.83,2.89,5.64,3.74,8.52,1.91,2.88-1.83,3.74-5.64,1.91-8.52-5.25-8.29-15.76-12.03-26.72-9.58-11.3,2.54-19.45,11.16-20.78,21.95-.83,6.7,1.22,13.7,5.67,20.03-.04.1-.11.16-.14.26-.98,3.26.87,6.7,4.14,7.69.1.03,10.87,4.18,16.24,26.38,6.63,27.35-4.03,49.71-27.79,58.35-25.75,9.36-46.73-1.46-54.21-8.51-1.38-1.3-3.27-1.86-5.15-1.61-1.87.28-3.51,1.41-4.44,3.06-11.45,20.16-43.44,11.76-43.75,11.67-.46-.13-.92-.07-1.38-.09-3.18-.74-6.47-1.42-9.98-1.99-4.77-15.37-12.54-25.71-21.3-32.65-.04-.2,0-.41-.06-.61-4.59-15.24,4.2-27.07,13.94-33.07,10.06-6.17,24.62-8.21,34.48,1.18,2.79,2.65,2.76,7.13,1.48,10.4-.74,1.9-3.04,6.32-8.56,6.43-3.41.07-6.12,2.88-6.05,6.29.07,3.37,2.81,6.05,6.17,6.05h.12c8.87-.17,16.47-5.65,19.83-14.31,3.37-8.68,1.61-18.03-4.48-23.82-12.67-12.05-32.55-13.15-49.46-2.75-13.7,8.42-21.15,21.91-20.89,36.21-9.63-4.11-19.27-5.37-26.69-5.56,2.3-4.74,3.77-9.5,4.51-14,2.2-13.45-1.75-26.11-10.44-34.51,7.47-11.71,9.25-30.28,4.36-46.83,9.63-8.9,19.15-13.08,28.38-12.77,12.51.63,20.68,9.95,20.74,10.03,1.24,1.46,3.1,2.3,4.99,2.19,1.91-.08,3.68-1.04,4.78-2.6.13-.2,14.15-19.41,44.92-10.26,10.15,3.03,11.97,12.52,12.28,15.36.71,6.41-1.63,12.12-5.96,14.55-11.23,6.28-25.81,2.94-27.56.2-.77-3.26-3.99-5.33-7.28-4.64-3.34.7-5.47,3.97-4.77,7.31.62,2.97,2.72,7.11,9.2,10.07,4.12,1.88,9.63,3.01,15.56,3.01,6.89,0,14.35-1.53,20.88-5.17,8.68-4.85,13.47-15.32,12.21-26.68-1.38-12.48-9.44-22.38-21.03-25.83-3.5-1.04-6.82-1.78-10-2.28,14.37-12.72,36.13-13.72,64.94-2.85,12.87,4.86,24.36.82,36.51-3.45ZM3397.45,385.94c-16.99-21.15-39.99-16.48-64.34-11.53-3.64.74-7.31,1.46-11.02,2.14,9.09-5.74,20.51-10.7,45.64-9.73,27.85,1.1,38.47,18.18,42.33,28.27,6.57,17.19,3.07,36.39-4.32,43.54-1.36,1.31-2.04,3.17-1.85,5.05.19,1.88,1.22,3.56,2.8,4.58,8.25,5.32,12.09,15.17,10.25,26.35-.92,5.62-3.44,11.76-7.73,17.57-.37.22-.68.49-.99.77.84-2.18,1.6-4.46,2.2-6.9,5.15-21.04-2.81-35.14-10.91-42.54,2.48-3.42,4.58-7.66,5.96-11.6,3.29-9.36,6.61-27.77-8.01-45.97ZM3562.36,346.06c-4.56-.66-8.86-.98-12.85-.96,1.21-10.69-1.51-21.37-8.06-30.7-1.64-2.33-3.53-4.47-5.54-6.52,5.43,2.79,10.31,6.19,14.4,10.31,7.93,8.02,12.2,17.98,12.06,27.86ZM3376.16,336.67c16.16-7.23,35.83-4.62,43.25-.07,1.65,1.01,3.67,1.19,5.46.5,1.8-.69,3.17-2.19,3.71-4.04,3.61-12.45,27.5-33.63,61.83-31.72,17.74,1.02,32.66,8.36,40.94,20.15,5.31,7.56,7.2,16.28,5.51,24.88-15.79,3.18-26.1,11.91-32.75,21.01-13.41,1.61-22.51,7.83-27.54,12.44-4.95-3.96-13.35-9.04-24.32-9.65-11.53-.7-23,3.73-34.16,13-6.89-12.5-21.1-27.56-49.88-28.7-3.5-.14-6.72-.14-9.79-.08,3.16-7.88,9.08-13.85,17.74-17.74ZM3236.54,494.71c.34.15,34.01,15.16,34.98,42.22.13,3.59-.11,6.75-.59,9.61-.22-1.7-.55-3.41-1-5.11-3.82-14.4-14.75-25.18-28.51-28.13-10.47-2.25-19.88-8.01-17.86-34.71,1.01-13.34-4.53-25.52-15.21-33.42-3.83-2.83-8.14-5.01-12.81-6.57,13.85-.07,26.95,5.03,35.92,19.98,7.35,12.26,1.78,28.2,1.74,28.35-1.12,3.06.35,6.47,3.34,7.78ZM3237.87,361.43c1.95,23.92-13.4,54.37-45.71,63.66-.92.26-1.69.75-2.36,1.34-2.36.2-4.83.55-7.37,1,1.48-3.29,2.26-6.57,2.1-9.72,17.8-4.21,43.6-18.44,47.15-51.36,1.14-10.6.39-19.92-2.2-27.92,4.74,6.31,7.66,14.02,8.39,22.99ZM3014.9,298.3c12.19-4.86,25.59-7.17,39.51-7.23-39.3,5.47-59.56,23.08-65.49,37.35-3.54-.06-6.99.16-10.38.55,7.01-13.26,19.7-24.02,36.36-30.67ZM2911.27,465.89c.34,1.39.7,2.75,1.09,4.1-9.78.74-20.87,5.12-30.32,12.57,1.09-1.4,2.17-2.65,3.13-3.63,7.56-7.78,18.05-12.91,26.1-13.03ZM2797.66,628.71c-44.05-3.67-43.06-25.77-42.18-45.26.07-1.55.14-3.05.18-4.49.27-9.24-2.12-15.89-7.12-20.45,3.2.22,5.84.94,7.69,2.35,3.92,2.99,5.74,10.1,5.59,21.76-.2,14.83,7.21,27.64,20.87,36.07,9.2,5.68,20.48,9.18,33.19,10.56-5.99.11-12.07-.03-18.22-.54ZM3018.04,655.13c-4.35-.78-8-4.16-12.63-8.44-8.02-7.43-19.01-17.62-40.49-18-17.59-.31-27.59-8.24-31.98-12.92-5.33-5.7-7.55-11.83-7.38-15.38.12-2.64-1.44-5.06-3.89-6.03-.68-.27-1.39-.39-2.1-.4-1.64-.71-3.54-.78-5.25.1-55.65,28.79-102.95,27.86-125.14,14.14-6.94-4.29-15.19-12.18-15.01-25.4.21-16.06-3.11-26.15-10.45-31.74-11.85-9.04-32.13-4.16-57.4,3.15-.24.07-.42.24-.65.34-2.22.43-4.45.86-6.87,1.4-18.69,4.18-38.72,3.39-52.94-1.31,10.41.77,22.99-1.77,37.55-7.7,54.89-22.35,110.33-42.47,136.75-25.61-9.81,12.12-13.36,26.98-9.98,42.53,4.09,18.8,18.13,30.02,37.58,30.01h.03c18.87,0,36.59-10.97,39.5-24.43,1.73-7.98-.58-15.55-6.18-20.23-2.62-2.19-6.51-1.85-8.7.77-2.19,2.62-1.84,6.51.77,8.69.75.63,3.13,3.09,2.03,8.16-1.5,6.93-13.55,14.68-27.44,14.69h-.02c-7.89,0-21.68-2.64-25.52-20.29-3.78-17.37,4.07-29.33,11.32-36.3,11.85-11.41,27.85-15.32,34.37-13.6.04,0,.08,0,.12.02.08.04.12.11.2.14.85.4,1.74.58,2.62.58,2.32,0,4.54-1.31,5.59-3.55,8-17.03,28.05-27.5,40.94-26.09,3.68,6.41,9.24,12.1,18.3,16.78,0,.14-.06.25-.05.39,1.3,18.5,13.43,43.64,37.6,58.08,11.01,6.58,26.63,12.22,47.83,12.22,12.08,0,25.98-1.87,41.85-6.4-5.69,7.54-8.49,16.03-8.06,25.01-10.98,2.19-20.87,8.87-26.77,18.4-6.69,10.8-7.26,23.44-1.61,35.6,2.27,4.88,5.29,8.68,8.71,11.68-4.58,1.2-10.7,2.09-17.17.94ZM2979.59,547.07c-17.91-10.7-27.94-28.15-30.82-42.62,2.57.8,5.26,1.57,8.22,2.26,15.85,36.13,40.8,41.69,71.62,45.12,13.64,1.51,26.2-1.3,38.33-4,3.52-.79,6.92-1.54,10.25-2.17-49.74,19.13-80.35,11.71-97.6,1.41ZM3116.42,688.26c-34.12-7.58-32.83-28.95-32.76-29.79.2-1.93-.52-3.84-1.94-5.15-1.43-1.32-3.39-1.9-5.29-1.55-.29.05-29.62,5.11-38.72-14.47-4.92-10.58-2.22-18.83.91-23.89.95-1.53,2.1-2.93,3.35-4.24,0,.02-.02.04-.02.06-2.41,8.17-.87,16.89,4.24,23.93,8.17,11.25,23.71,16.05,38.89,12.72,3.36,13.61,11.11,24.08,22.69,30.52,8.27,4.61,18.33,6.89,29.13,6.89,5.61,0,11.42-.69,17.29-1.92-8.66,6-21.12,10.6-37.74,6.9ZM3244.33,634.28c-26.59,32.22-68.72,28.15-69.13,28.08-1.14-.14-2.24.09-3.22.54-.86,0-1.72.16-2.56.54-20.15,9.23-41.49,10.06-55.69,2.16-10.1-5.61-16.08-15.19-17.76-28.44-.24-1.9-1.35-3.58-3.01-4.55-1.66-.98-3.66-1.12-5.43-.4-11.82,4.77-25.3,2.06-31.38-6.31-2.84-3.91-3.71-8.72-2.39-13.18,1.45-4.91,5.35-8.81,10.98-10.99,3.18-1.23,4.76-4.8,3.53-7.98-.1-.26-.3-.45-.44-.69-.02-.16.04-.31,0-.47-3.14-14.34,5.7-24.29,13.67-30.12,13.61-9.95,31.25-12.65,36.51-9.6.31.18.66.21.99.33,18.99,8.84,29.92,8.86,45.28,8.78h4.06c6.63-.01,14.8,1.77,16.12,10.27,1.42,9.15-5.73,22.16-17.42,25.88-14.46,4.61-25.36,2.83-30.28-.1-1.72-1.02-2.21-1.89-2.24-2.05.83-3.3-1.18-6.66-4.49-7.48-3.3-.84-6.66,1.18-7.48,4.49-1.15,4.6.4,9.32,4.26,12.94,4.52,4.24,12.79,7.34,23.51,7.34,6.11,0,13.02-1.01,20.47-3.38,16.54-5.26,28.39-23.37,25.89-39.54-2.02-12.98-12.61-20.73-28.32-20.73h-4.11c-17.04.1-26.43.13-49.02-12.15-17.06-9.27-34.31-5.41-50.98-1.68-11.14,2.49-22.65,5.09-34.28,3.78-29.33-3.26-49.55-7.84-62.81-40.49-.77-1.9-2.43-3.29-4.43-3.72-34.19-7.27-36.67-18.91-41.17-40.04-1.79-8.44-3.83-18-8.24-28.62-5.87-14.14-1.31-34.09,11.9-52.08,13.22-18.01,37.92-36.3,67.64-33.6,3.19.28,6.09-1.92,6.64-5.09,1.82-10.46,22.5-32.57,74.85-34.13,33.63-1.04,54.61,7.68,68.47,13.43,9.7,4.03,16.73,6.94,23.49,4.77,5.94-1.87,27.72-3.65,41.63,7.72,9.45,7.73,13.32,20.29,11.48,37.33-4,37.05-41.67,41.46-43.26,41.63-2.1.21-3.95,1.48-4.9,3.37-.95,1.89-.87,4.14.22,5.94,2.19,3.66-1.31,8.67-2.91,10.65-2.99,3.68-7.07,6.67-11.23,8.64-.81.35-1.59.65-2.41,1.01-4.02,1.5-7.96,1.98-10.91.96-1.99-.7-4.2-.31-5.84.99-1.65,1.3-2.53,3.36-2.31,5.46.36,3.61-3.2,6.88-6.25,9-16.1,11.19-55.5,16.06-76.85,5.59-15.99-7.85-25.28-19.97-24.25-31.62,1.03-11.68,12.57-21.52,31.65-27.01,22.42-6.44,36.11-3.13,41.03,1.68,1.25,1.22,1.88,2.54,1.64,3.44-.21.82-1.35,1.94-3.9,2.61-3.29.87-5.26,4.26-4.39,7.55.87,3.29,4.24,5.23,7.55,4.39,2.37-.63,4.38-1.66,6.18-2.86.87-.23,1.71-.6,2.44-1.23,9.11-7.87,12.33-20.03,8.2-30.98-4.16-11.04-17.08-22.76-40.88-22.76h-.56c-24.11.19-56.2,8-73.97,29.33-11.16,13.41-15.1,30.03-11.69,49.4,3.72,21.15,18.82,37.1,42.52,44.9,9.72,3.2,20.15,4.73,30.67,4.73,25.95,0,52.42-9.34,69.96-25.98.56-.35,1.16-.69,1.69-1.05,4.07-2.83,6.7-5.73,8.48-8.55,1.01.13,2.04.11,3.05-.28,20.99-8.24,40.76-7.83,52.84,1.1,7.29,5.4,10.93,13.4,10.24,22.55-2.09,27.67,6.93,43.27,27.58,47.71,9.06,1.94,16.58,9.49,19.16,19.22,2.51,9.48-.2,18.91-7.27,25.22-2.54,2.27-2.76,6.18-.49,8.72.64.72,1.42,1.22,2.25,1.57,3.45,5.62,14.02,27.31-8.15,54.17ZM3056.74,387.8c-24.25,6.97-39.03,20.74-40.54,37.79-1.49,16.86,10.43,33.63,31.11,43.78,9.34,4.58,21.05,6.72,33.1,6.99-14.2,2.23-28.96,1.4-42.23-2.96-11.1-3.66-30.31-13.11-34.22-35.31-2.75-15.64.28-28.88,9.02-39.37,15.08-18.11,44.21-24.72,64.58-24.89,17.87-.13,27.06,7.54,29.79,14.77.32.84.54,1.68.7,2.54-10.34-8.37-29.2-9.7-51.31-3.35ZM3268.71,613.82c3.89-15.98-.19-29-3.69-36.31,9.09-5.8,19.65-18.56,18.84-41.02-.46-12.76-6.04-23.16-13-31.3,12.9-2.19,22.35-9.01,27.39-15.81,2.62-3.52,4.27-7.16,4.89-10.63,13.12-1.22,24.75-7.03,31.92-16.19,6.91-8.83,8.96-20.11,5.79-31.76-4.59-16.82-21.92-21.21-36.1-18.12-15.01,3.24-24.26,13.15-22.5,24.09.54,3.36,3.7,5.63,7.08,5.11,3.36-.54,5.65-3.71,5.11-7.08-.62-3.87,5.17-8.39,12.92-10.06,1.84-.39,18.08-3.51,21.58,9.3,2.16,7.92.91,15.14-3.6,20.91-5.85,7.47-16.63,12.14-28.43,11.68-1.92.1-3.98.93-5.18,2.6-1.19,1.67-1.46,3.82-.75,5.74.28.75.01,3.48-2.65,7.07-4.57,6.16-14.63,12.4-28.75,11.51-.37-.03-.69.1-1.05.13-4.67-3.54-9.07-6.19-12.24-7.9,1.63-7.45,3.1-21.32-4.24-33.55-3.46-5.76-8.8-12.41-16.55-17.58.04-9.07,3.31-17.45,9.61-24.34,9.91-10.84,26.09-17.12,45.56-17.69,3.96-.11,7.42-.54,10.61-1.12,15.87.73,30.96-2.29,44.28-4.99,25.54-5.2,40.55-7.41,52.26,7.17,6.58,8.19,9.18,17.34,7.71,27.2-1.46,9.77-6.36,16.27-7.89,17.54-2.11.8-3.62,2.72-3.92,5.01-.33,2.59,1.02,5.11,3.35,6.29.71.36,17.28,9.11,11.33,33.38-5.05,20.61-21.96,29.25-28.98,32.01-1.05.35-2.09.7-3.07,1.07h0c-20.32,7.68-27.22,20.55-29.28,30.6-3.73,18.15,6.32,36.81,18.17,45.86,8.88,6.79,21.49,10.49,33.79,10.49,6.1,0,12.13-.9,17.59-2.8,10.33-3.57,17.25-10.29,19.47-18.91,2.34-9.13.1-17.08-6.32-22.4-8.45-7.01-22.04-7.43-29.76-3.8-3.09,1.45-4.41,5.12-2.97,8.21,1.45,3.07,5.11,4.41,8.21,2.97,4.08-1.9,12.39-1.38,16.63,2.13,1.69,1.4,3.75,3.94,2.24,9.82-1.47,5.73-7.09,8.77-11.54,10.31-12.67,4.36-29.77,1.86-39.84-5.84-8.58-6.55-16.25-20.54-13.57-33.57,1.98-9.68,9.63-17.08,22.14-21.7.53-.18,1.16-.41,1.9-.69,1.68-.55,3.39-1.09,5.23-1.55,17.34-4.38,29.62-12.68,37.83-22.2,10.67-1.17,47.75-2.01,58.98,40.77.63,2.41,2.65,4.21,5.12,4.55,19.45,2.69,33.14,8.08,42.79,14.38,4.35,4.6,7.52,13.57,8.16,23.75.92,14.57-3.23,27.41-10.8,33.51-8.84,7.11-18.13,7.35-28.88,7.64-9.96.27-20.27.54-30.52,6.55-5.47,3.21-8.61,7.52-11.65,11.67-5.53,7.58-11.25,15.42-34.65,19.53-29.09,5.12-65.35.37-77.6-10.15-2.06-1.77-3.09-3.48-3.05-5.08.03-1.31-.44-2.47-1.12-3.48.09-1.03.25-2.09.52-3.17.52-2.13-.13-4.38-1.7-5.9-1.57-1.52-3.84-2.12-5.95-1.52-17.86,4.98-47.1,1.18-57.24-22.37ZM3541.96,622.41c-11.74,21.94-34.62,33.51-61.25,30.96-2.76-.28-5.37,1.34-6.36,3.94-7.31,19.19-26.13,26.81-71.93,29.12-18.09.88-35.88-3.27-49.06-10.78,10.81,2.76,23.5,4.28,36.51,4.27,9.09,0,18.31-.73,27.1-2.27,28.3-4.98,36.17-15.76,42.49-24.41,2.6-3.57,4.66-6.39,7.92-8.31,7.51-4.4,15.81-4.62,24.6-4.86,11.34-.3,24.19-.64,36.29-10.36,10.51-8.46,16.18-24.2,15.41-42.32,5.1,13.63,2.5,27.09-1.74,35.02ZM3436.19,736.7c-17.33-6.13-31.26-10.08-52.91-4.67-18.18,4.56-52.39.87-66.76-15.47-19.35-22.01-36.92-21.2-71.46-10.8-11.9,3.58-21.58,2.79-29,.44,15.78-1.99,34.72-8.62,50.11-19.82,19.08-13.88,45.97-26.65,67.09-10.51,14.26,14.31,38.3,23.05,64,23.05,1.92,0,3.84-.05,5.78-.14,40.96-2.06,69.09-8.42,80.99-32.79,20.24,1.01,38.44-5.12,52.27-17.02,5.9,12.16,18.13,26.38,38.2,29.1-5.38,11.11-20.15,32.2-56.88,39.32-.05.01-.1.05-.16.06-.71.16-1.36.43-1.97.81-.13.08-.23.18-.35.27-.48.36-.91.78-1.27,1.28-.08.11-.17.19-.24.3-.04.05-.08.1-.12.15-15.05,24.89-54.29,24.61-77.33,16.45ZM3570.31,704.59c10.51-10.31,15.53-20.81,17.63-26.5.62-.07,1.19-.04,1.83-.13,6.79-.97,12.8-1.97,18.22-2.97-8.93,12.37-22.52,22.41-37.68,29.59ZM3852.07,570.5c-25.45-5.59-39.39,3.26-53.6,19.32-11.05,12.49-22.86,14.21-44.31,17.34l-1.87.28c-3.33.48-5.65,3.54-5.23,6.87.66,5.28-1.55,10.91-6.38,16.28-10.6,11.79-36.7,24.15-77.65,23.32-13.31-.19-23.16,1.87-36.86,4.82-9.63,2.07-21.63,4.65-38.15,7.01-28.82,4.12-39.72-19.29-42.39-26.54,2.66-3.38,5.1-7.02,7.21-10.96,6.41-11.99,9.75-31.7-.1-51.06-3.9-7.66-10.55-16.38-21.74-23.94-.84-.8-1.72-1.49-2.63-2.13,7.07-1.94,14.03-5.5,19.48-11.92,12.31,8.45,34.71,16.42,61.38,6.72,16.25-5.9,27.74-17.16,33.54-31.6.1-.01.18.02.28,0,5.32-1.02,9.45,3.67,10.99,5.73,5.18,6.92,8.11,19.51,2.3,30.79-1.06,2.06-.87,4.52.46,6.4,1.34,1.89,3.59,2.87,5.9,2.54,3.73-.46,8.54,4.16,9.86,11.13,2.11,11.21-6.32,20.19-22.55,24.03-14.79,3.49-30.37,2.18-38.79-3.28-3.37-2.18-5.31-4.79-5.91-7.97-.4-2.1-.25-3.94.37-5.59.28-.45.51-.89.66-1.37.49-.83,1.1-1.61,1.89-2.32,3.99-3.56,10.45-4.6,13.17-3.73,3.24,1.01,6.72-.78,7.75-4.03,1.02-3.25-.78-6.72-4.03-7.75-6.45-2.01-17.44-.52-25.09,6.29-2.26,2.01-4.01,4.32-5.23,6.85-8.42,9.08-11.22,21.96-6.81,32.79,3.5,8.63,14.46,22.91,48.66,22.91.6,0,1.22,0,1.84-.01,36.52-.54,56.5-20.13,63.02-38.28,5.58-15.53,2.6-31.99-7.46-45.23,3.3.61,6.3,1.68,8.94,3.29,9.37,5.7,11.62,16.13,11.64,16.19.33,1.72,1.38,3.22,2.88,4.12,4.26,2.55,27.15,14.23,59.33-7.46.08-.05.16-.1.25-.16,3.65-1.81,6.93-3.76,9.85-5.84,20.44-10.54,39.65-9.92,65.25,1.46,20.92,9.3,34.57,9.12,46.41,6.88-12.76,8.6-31.5,11.1-46.5,7.81Z"/>
  <path class="cls-1" d="M1006.44,1206.32c1.16-12.1-3.82-24.03-14.4-34.49-14.58-14.41-37.49-23.63-57.9-23.75-.24-14.76-7.22-28.58-19.17-37.25-15.83-11.5-37.67-12.5-60.61-3.01-4.08-6.9-8.64-12.53-13.48-17.28,12.52-11.6,16.53-30.59,14.65-45.02-1.43-11-6-19.87-12.7-25.33,7.32-13.04,25.6-55.12-19.23-90.06-35.02-27.29-80.89-22.75-110.55-10.3-14.74-4.08-48.38-10.25-85.19,4.25-44.05,17.36-58.48,56.75-53.55,86.97-8.21,1.56-18.31,6.09-26.8,14.38-7.77,7.6-16.78,20.98-15.51,41.58.26,4.16.95,8.01,1.99,11.56-17.3-2.62-53.13-4.52-95.38,13.4-27.95,11.86-46.91,30.37-54.82,53.52-7.36,21.53-4.66,45.42,7.59,67.27.39.71.94,1.26,1.53,1.74,1.3,2.61,2.78,5.11,4.58,7.4,4.53,5.79,10.22,9.89,16.26,11.93-.72,1.66-1.33,3.48-1.8,5.43-3.49,14.35-.07,37.45,21.06,55.38,17.56,14.9,43.66,20.14,67.62,20.14,6.55,0,12.9-.42,18.91-1.12-.17,4.47,1.15,8.95,3.98,12.99,10.29,14.71,36.44,21.21,69.94,17.4,36.41-4.14,73.1,3.63,85.39,18.07,3.75,4.41,4.86,9.1,3.38,14.37-6.48,23.12-47.75,35.91-100.41,31.16-62.75-5.7-107.62,7.69-120.02,35.85-13.87,31.53-.03,52.25.56,53.12,1.17,1.7,3.09,2.68,5.09,2.68.49,0,.99-.06,1.49-.18,2.5-.62,4.35-2.72,4.64-5.28.04-.36,4.86-35.83,63.64-29.64,55.58,5.87,192.37,13.84,262.13-38.26,5.2-3.88,9.88-7.98,14.12-12.23,36.37-31.13,49.56-74.36,33.27-105.87,1.48-.24,2.88-.35,4.38-.63,24.76-4.66,41.57-13.85,49.98-27.31,4.27-6.83,5.45-13.44,5.58-18.3,23-.52,95.02-6.09,99.75-55.27ZM983.35,1180.61c5.48,5.41,11.8,14.06,10.79,24.53-1.96,20.42-20.59,31.4-40.75,37.31,15.27-9.84,27.62-22.73,29.45-37.07,1.54-12.06-3.57-24.45-12.8-34.66,4.95,2.85,9.51,6.14,13.3,9.89ZM632.39,935.58c35.18-13.87,67.19-6.91,79.31-3.28,1.4.42,2.93.31,4.28-.27,21.29-9.45,66.31-18.43,100.04,7.85,21.62,16.85,25.74,35.33,24.19,50.01-4.78-22.79-22.31-41.97-43.18-50.84-34.19-14.55-68.94-6.56-83.3,1.95-18.74-9.09-60.11-11.54-89,5.36-17.02,9.96-29.14,24.27-37.16,38.04,4.71-19.28,18.68-38.49,44.84-48.81ZM396.97,1155.3c-1.9,3.85-3.4,7.68-4.71,11.48.3-5.9,1.3-11.7,3.21-17.29,6.75-19.74,23.33-35.69,47.96-46.14,49.68-21.08,90.58-12.53,97.17-10.92,2.85,4.12,6.23,7.65,9.85,10.63-16.93-5.84-41.8-6.66-67.88-1.63-19.63,3.78-67.26,16.6-85.6,53.87ZM694.12,1379.83c2.6-9.26.56-18.15-5.87-25.71-11.01-12.93-34.81-21.26-62.83-23.12,12.41-.3,25.57.26,39.27,2.66,25.11,4.4,42.52,14.95,47.76,28.94,3.53,9.44,1.37,19.7-6.08,28.9-6.35,7.85-20.51,13.4-38.56,16.76,13.19-6.59,22.81-15.93,26.31-28.44ZM839.43,1352.56c-.19-2.79-.49-5.58-1.04-8.36-2.58-13.15-9.23-25.12-18.39-34.51,1.46.05,2.89.16,4.4.16,2.88,0,5.94-.25,8.98-.45,8.04,12.35,9.83,27.53,6.04,43.16ZM899.77,1249.27c-1.83.06-3.4.95-4.48,2.25-.03.04-.08.05-.11.08-.08.11-.09.25-.17.36-.4.58-.71,1.2-.9,1.9-.07.27-.1.53-.13.81-.04.33-.17.63-.16.97,0,.29.14.54.19.81.03.18-.04.36,0,.54.08.32,1.93,8.04-3.55,16.6-6.49,10.13-20.88,17.55-41.62,21.46-4.04.77-7.87,1.3-11.54,1.69-.87-.11-1.76,0-2.62.26-28.2,2.44-45.04-5.63-51.22-14.29-3.34-4.69-3.84-9.62-1.41-13.87,1.23-2.15,1.06-4.82-.44-6.79-1.49-1.98-4.02-2.87-6.42-2.26-12.6,3.15-25.33-.51-33.2-9.56s-9.47-21.39-4.42-33.86c11.51-28.39,44.37-32.65,64.03-26.6,3.68,1.13,8.14,3.51,8.43,8.38.17,2.86-1.16,5.24-2.06,6.09-2.71-1.41-6.1-.62-7.89,1.94-1.96,2.8-1.28,6.64,1.51,8.6,3.72,2.6,8.34,2.73,12.36.33,5.72-3.43,9.2-11.39,8.28-18.94-1.04-8.56-7.24-15.2-17.01-18.21-24.15-7.43-64.66-1.87-79.1,33.76-2.18,5.39-3.3,10.84-3.59,16.19-.05.21-.19.39-.22.61-1.66,12.3-11.46,19.65-19.39,23.66-12.6,6.37-25.13,6.75-28.02,5.14-2.99-1.62-6.74-.54-8.38,2.44-1.64,2.99-.55,6.74,2.44,8.39,2.79,1.53,6.72,2.26,11.26,2.26,8.46,0,19.04-2.54,28.27-7.2,7.54-3.8,13.62-8.67,18.04-14.33,1.6,3.36,3.62,6.55,6.14,9.44,3.33,3.83,7.28,6.97,11.64,9.36-1.34,2.93-1.8,6.12-1.03,9.37,2.6,10.99,16.78,19.69,43.35,26.59,19.69,5.12,35.61,22.37,39.64,42.92,2.4,12.24,2.12,34.57-20.86,57.8-.91.78-1.76,1.58-2.7,2.34-.42.34-.69.78-1,1.2-2.95,2.71-6.12,5.42-9.74,8.12-68.14,50.87-211.23,40.31-253.45,35.88-42.29-4.44-61.61,10.73-70.29,23.75-.72-6.9.01-16.13,4.89-27.2,8.58-19.5,41.75-30.49,86.88-29.65.4.16.75.4,1.19.48,17.33,3.2,38.34,5.1,59.37,5.1,40.32,0,80.74-6.98,95.42-25.11,10.17-12.55,13.1-27.5,8.04-40.99-6.91-18.47-27.22-31.52-57.18-36.78-31.44-5.5-59.77-2.16-82.53.52-24.4,2.89-42.02,4.97-50-4.71-.64-.77-1.44-1.28-2.31-1.65-.22-1.35-.05-2.7.48-4.05,6.35-1.31,11.96-2.95,16.38-4.78,3.15-1.3,4.65-4.91,3.34-8.07-1.3-3.15-4.92-4.66-8.06-3.34-24.97,10.33-77.56,11.49-103.14-10.21-16.83-14.29-19.71-32.12-17.05-43.05,1.27-5.26,3.45-7.29,4.1-7.45,3.31-.77,5.38-4.05,4.64-7.37-.74-3.31-4.04-5.44-7.33-4.68-6.01,1.3-13.13-1.98-18.13-8.38-9.81-12.54-9.49-32.56.84-53.56,11.03-22.41,39.76-40.05,76.86-47.2,30.8-5.96,61.13-3.07,72.11,6.81,1.89,1.7,4.63,2.07,6.89.93,10.63-5.31,23.59-5.66,34.71-.95,13.39,5.68,23.44,18.16,29.06,36.07,7.42,23.67-2.36,36.67-8.86,42.31-7.46,6.48-14.88,7.42-16.43,6.67-1.99-1.27-4.51-1.11-6.51.11-2.01,1.23-3.13,3.67-2.9,6.02.11,1.16-2.06,6.47-9.68,12.47-4.59,3.61-21.04,14.9-39.96,8.36-27.38-9.46-24.2-28.08-22.56-33.57,2.65-8.92,9.96-15.5,15.6-14.1,3.3.83,6.66-1.18,7.49-4.49.83-3.3-1.18-6.66-4.49-7.48-12.42-3.14-25.76,6.81-30.43,22.56-4.75,16.01.35,38.38,30.37,48.75,20.49,7.05,40.79-1.26,52.97-11.41,5.71-4.77,9.74-9.91,11.7-14.75,6.36-.04,14.05-2.89,20.8-8.07,16.46-12.62,21.95-33.96,14.69-57.09-8.51-27.13-24.28-38.76-36.01-43.74-6.48-2.75-13.45-4.15-20.41-4.25-.45-.19-.87-.43-1.37-.51-1.44-.23-35.39-6.11-37.35-37.95-.98-15.93,5.89-26.2,11.82-32,9.33-9.12,20.42-11.83,25.18-11.48,3.29.31,6.25-2.12,6.64-5.41,1.48-12.36,13.94-43.38,42.97-60.36,27.46-16.05,67.79-11.4,79.73-3.61,2.25,1.46,5.21,1.3,7.29-.4,7.79-6.41,41.31-16.58,74.23-2.6,24.9,10.59,45.25,38.26,33.9,68.67-.6,1.61-.5,3.39.26,4.93.77,1.53,2.14,2.68,3.78,3.16,6.87,2.01,11.78,9.47,13.15,19.97,1.52,11.67-1.79,27.01-12.09,35.36-24.74-16.81-55.43-13.79-81.67-8.09-21.93,4.79-42.02,2.45-55.14-6.37-8.85-5.95-14.31-14.51-16.21-25.43-2.76-15.81,8.07-26.83,20.02-30.75,9.92-3.24,22.19-1.91,27.28,8.39,1.86,3.75,3.61,8.97,1.4,12.56-1.93,3.14-6.15,4.36-7.58,4.52-2.72-.55-5.59.82-6.82,3.47-1.43,3.09-.08,6.76,3.01,8.19,4.66,2.15,13.99-.9,19.22-6.28,3.88-3.98,9.27-12.9,1.83-27.93-7.25-14.64-24.2-20.53-42.18-14.64-3.03.99-6.04,2.36-8.91,4.06-.89-.02-1.78.1-2.64.49-14.06,6.25-24.57,18.97-28.84,34.89-4.44,16.55-1.33,33.82,8.53,47.37,20.98,28.85,56.23,29.85,82.24,21.2,36.17-12.06,83.55-17.85,97.99,5.44.42.68.98,1.21,1.59,1.66.64,1.13,1.31,2.21,1.92,3.4,1.54,2.97,5.16,4.17,8.16,2.71,20.62-9.95,40.07-10.14,53.32-.51,10.22,7.42,15.49,20.04,13.75,32.93-.03.19.06.37.05.57-.02.68,0,1.34.18,1.97.08.28.24.52.37.8.24.52.51,1.02.88,1.45.09.1.11.24.21.34.34.35.72.66,1.13.91.02.01.05.02.07.04.67.41,1.4.68,2.17.82.03,0,.05.02.07.02,25.39,4.11,46.36,24.67,44.01,43.14-2.79,21.84-46.84,44.62-70.83,45.47ZM770.85,1285.54c-13.75-5.79-15.39-10.62-15.55-11.31-.07-.3-.2-1.12.67-2.21,3.97.9,8.08,1.35,12.26,1.2-.21,4.12.69,8.31,2.62,12.32ZM808.25,1085.35c-26.39-1.34-55.29,7.01-67.41,11.06-21.86,7.27-51.3,6.72-68.36-16.74-7.59-10.43-10-23.73-6.67-36.56.07.54.1,1.06.2,1.6,2.47,14.17,9.9,25.77,21.48,33.56,16.12,10.85,39.09,13.75,64.65,8.19,22.95-4.99,41.28-5.43,56.1-1.11ZM1223.03,1467.52c-3.43-4.47-7.27-8.25-11.5-11.38-11.19-23.29-37.44-30.31-78.15-20.76-2.44.57-4,.7-4.93.7-.88,0-1.23-.13-1.22-.09-.67-.92-.85-4.92-.98-7.57-.43-9.23-1.09-23.17-15.61-32.96-12.49-8.42-23.33-10.79-30.58-11.22.06-3.1-.38-5.93-1-8.17,5.47-4.23,13.39-13.05,12.45-28.17-.71-11.32-7.12-21.85-17.15-28.17-9.05-5.7-19.7-7.24-30.5-4.5-6.44-14.8-22.51-23.74-45.18-25.16-.82-.26-1.69-.37-2.59-.23-.03,0-.06,0-.09.01h-.02c-36.33-1.22-83.03,17.45-91.84,46.28-5.93,19.43-1.96,37.52,10.92,49.61,8.76,8.24,20.75,12.73,33.62,13.31-1.47,2.39-2.48,4.91-2.92,7.58-.42,2.51-.33,4.87.05,7.02-6.75.34-14.3,2.53-21,6.41-14.42,8.34-22.04,22.76-20.92,39.56,1.27,19.01,11.39,28.92,19.67,33.89,13.97,8.39,34.28,9.1,50.53,1.79,20.33-9.15,34.53-1.05,47.35,8.03,6.28,4.44,14.86,6.86,24.01,6.86,11.8,0,24.56-4.02,34.61-12.85,23.72,16.04,64.49,3.92,92.9-17.07,22.37-16.54,40.93-4.42,41.67-3.92,2.5,1.72,5.89,1.38,7.98-.82,2.1-2.2,2.28-5.61.43-8.02ZM1103.75,1405.69c9.38,6.32,9.78,14.96,10.18,23.31.3,6.32.6,12.85,5.78,16.77,4.97,3.77,11.8,2.74,16.49,1.64,18.36-4.29,32.86-4.99,43.75-2.11-12.43-.78-26.69,1.29-42.95,6.29-7.66,2.36-18.12,4.15-24.45-.67-6.15-4.68-6.8-14.35-6.64-19.69.23-7.77-2.76-14.76-8.63-20.21-5.62-5.22-13.76-8.87-23.69-10.88,1.08-1.15,2.08-2.35,2.9-3.65,4.63-.2,14.56.64,27.27,9.21ZM923.51,1376.74c-9.46-8.88-12.14-22.03-7.56-37.01,2.16-7.05,7.74-13.48,15.35-18.95-6.69,9.6-9.21,20.06-9.6,29.55-.54,13.19,6.75,26.57,18.31,35.1-6.3-1.59-12-4.46-16.5-8.69ZM1165.61,1470.35c-26.14,19.31-64.84,30.26-81.76,14.27-1.21-1.13-2.8-1.77-4.49-1.68-1.66.07-3.23.81-4.34,2.04-12.92,14.4-35.17,16.26-46.44,8.27-16.15-11.44-34.55-20.48-59.55-9.21-12.74,5.73-28.45,5.29-39.11-1.11-8.36-5.02-12.97-13.14-13.71-24.13-1.03-15.51,7.47-23.82,14.78-28.05,9.78-5.65,19.64-5.46,22.19-3.76,2.63,1.75,6.15,1.25,8.16-1.18,2.02-2.42,1.89-5.97-.3-8.24-.04-.04-3.89-4.27-3.11-8.92.82-4.91,6.57-8.8,11.25-11.19.69-.35,1.25-.84,1.74-1.39,1.31-.4,2.64-.71,3.94-1.2,20.66-7.75,25.67-20.76,26.81-27.82,1.5-9.21-1.7-18.8-7.94-23.85-3.82-3.1-8.32-3.95-12.35-2.4-3.18,1.24-5.04,4.85-3.81,8.02,1.23,3.18,4.52,4.76,7.7,3.56,1.19.31,4.12,3.85,4.4,9.3.21,4.15-1.22,8.05-3.99,11.53-.57.26-1.14.52-1.62.97-12.2,11.12-24.6,7.84-30.93,4.9-11.51-5.37-19.55-17.24-19.1-28.23,1.11-27.09,22.15-43.42,62.51-48.59,12.63.58,33.26,4.3,37.39,22.15.41,1.76,1.56,3.25,3.17,4.09,1.6.82,3.48.91,5.16.24,9.12-3.68,18.18-3.16,25.52,1.46,6.59,4.15,10.96,11.23,11.41,18.49.86,13.77-9.81,19.11-10.22,19.3-1.54.71-2.72,2.03-3.26,3.63-.54,1.61-.4,3.37.39,4.87.03.06,2.65,5.47,1.16,10.71-.57.77-1.01,1.63-1.17,2.59-1.68,2.76-4.62,5.07-8.96,6.85-.97.39-1.71,1.06-2.34,1.81-4.42-.02-8.99.14-13.78.63-19.97,2.07-34.79,10.99-39.64,23.87-3.33,8.83-1.35,18.39,5.29,25.57,10.71,11.56,26.46,10.09,36.56,3.8,8.95-5.55,12.85-14.07,9.95-21.7-1.22-3.18-4.79-4.79-7.97-3.57-3.19,1.22-4.79,4.78-3.57,7.97.65,1.71-1.51,4.7-4.92,6.81-5.93,3.7-15.04,4.73-20.99-1.71-3.5-3.77-4.49-8.33-2.79-12.82,2.44-6.49,11.44-14.09,29.36-15.94,20.92-2.16,38.34,1.1,46.56,8.74,3.28,3.05,4.81,6.58,4.69,10.81-.4,13.51,3.58,23.84,11.51,29.87,8.44,6.43,20.4,7.31,35.56,2.65,20.83-6.41,37.42-7.72,50.48-3.81-7.71.98-16.4,4.04-25.5,10.77ZM390.72,1417.7c-13.09-7.79-28.64-8.23-42.36-8.62-13.06-.37-24.33-.69-29.73-6.83-2.35-2.67-5.9-7.7-3.34-11.45,1.85-2.7,6.29-4.14,9.31-3.07,2.24.82,3.18,3.2,2.79,7.07-.26,2.59,1.14,5.07,3.49,6.19,14.1,6.7,29.39,1.9,37.2-6.34,4.97-5.23,6.85-11.56,5.44-17.62,16.11-16.28,13.88-39.87,2.93-54.82-4.33-5.91-10.45-10.79-17.2-14.02-1.01-18.7-8.95-36.41-21.51-47.64-10.14-9.05-22.79-13.47-37.15-13.33-5.31-7.65-15.23-14.02-27.43-17.45-23.43-6.59-50.63-1.37-74.63,14.32-1.12.74-1.83,1.81-2.27,2.98-6.11,3.38-11.92,7.64-17.15,12.97-29.92,30.48-31.53,77.53-14.53,103.75-.52,13.61,5.1,27.37,15.63,38.09,6.15,6.26,13.21,10.6,20.02,12.49-.7,4.01-.3,8.22,1.23,12.27,2.37,6.25,9.69,17.62,32.2,23.59,25.08,6.64,84.62,2.52,120.19.06,5.84-.41,10.97-.77,15.11-1.01,22.86-1.35,26.91,9.59,27.03,9.9.7,2.46,2.85,4.23,5.4,4.46.18.02.36.02.54.02,2.35,0,4.51-1.34,5.55-3.48,4.24-8.72,6.18-28.83-16.76-42.48ZM269.82,1241.65c12.66,3.56,19.65,10.07,21.78,14.57,1.1,2.31,3.52,3.66,6.08,3.51,12.54-1.03,23.25,2.36,31.84,10.04,9.04,8.07,15.31,20.99,17.06,34.67-4.55-.53-9.1-.25-13.37,1.24-2.35-10.34-6.88-19.47-13.42-26.8-8.95-10.02-20.96-15.98-34.16-17.06-4.61-10.4-14.92-18.34-29.01-22.27,4.51.28,8.95.91,13.2,2.1ZM372.8,1436.82c-1.46,0-2.98.04-4.57.14-4.17.25-9.34.61-15.23,1.02-32.52,2.25-93.07,6.45-116.17.32-12.54-3.32-21.23-9.16-23.82-16.02-1.28-3.38-.95-6.81.93-9.63,1.31-1.96,1.38-4.49.2-6.53-1.18-2.03-3.35-3.19-5.77-3.05-5.55.4-13.11-3.48-19.35-9.83-8.45-8.6-12.94-20.04-12-30.61.13-1.46-.27-2.92-1.12-4.12-13.06-18.39-16.3-60.95,12.02-89.81,18.41-18.76,46.33-22.24,64.47-17.53,12.22,3.17,20.56,9.84,22.88,18.29.74,2.68,3.17,4.54,5.95,4.54,11.37,0,21.79,4.66,29.36,13.12,9.57,10.71,13.71,26.68,11.64,44.96-2.24,19.88-19.22,33.14-34.37,38.93-17.85,6.8-36.21,5.12-46.78-4.33-10.44-9.33-14.21-20.47-10.35-30.59,3.49-9.14,12.44-15.54,21.76-15.54,4.5,0,10.3.93,12.4,5.37,1.31,2.77.69,5.65.15,6.62-2.7,1.48-3.93,4.76-2.76,7.69,1.26,3.17,4.86,4.73,8.02,3.45,5.64-2.25,8.86-10.23,7.34-18.18-.78-4.06-4.89-17.3-25.15-17.3-14.32,0-28.01,9.66-33.29,23.48-5.79,15.16-.81,31.27,13.66,44.2,14.19,12.67,36.95,15.23,59.41,6.65,23.66-9.04,39.84-27.84,42.23-49.07.58-5.18.74-10.21.47-15.06,8.79-4.91,23.51.17,31.53,11.12,8.52,11.64,9.84,29.46-4.13,41.02-2.27,1.88-2.9,5.11-1.49,7.7,1.4,2.57.81,5.24-1.74,7.93-4.05,4.26-11.95,6.87-19.4,4.97-.64-7.22-4.52-12.66-10.9-14.99-8.29-3.01-18.72.37-23.73,7.7-5.23,7.66-3.64,17.59,4.26,26.56,8.95,10.18,23.38,10.59,38.65,11.02,12.81.36,26.07.74,36.4,6.89,7.88,4.69,11.34,9.94,12.66,14.52-5.29-3.34-13.03-6.01-24.27-6.01Z"/>
  <path class="cls-1" d="M2447.63,1089.75c-2.79-17.7-12.52-33.25-27.41-43.78-13.7-9.7-38.48-19.68-78.71-12.24-.37.07-.67.28-1.02.41-10.17,1.27-19.58,4.17-26.84,8.45-8.85-17.6-31.94-31.43-56.97-32.97-10.21-.61-19.58.44-28.15,2.82-.4-5.49-2.01-10.6-5.11-15-4.7-6.67-12.67-11.85-22-14.47.28-6.25-1.09-14.54-5.6-22.04-4.92-8.16-15.36-18.39-37.18-20.74-22.38-2.44-41.76,3.74-53.19,16.86-2.11,2.42-3.85,5.02-5.25,7.72-2.36-3.46-5.15-6.51-8.33-8.93-17.18-13.03-37.5-14.57-56.38-4.39-11.06-8-33.35-13.58-60.42-1.25-18.72,8.52-28.33,20.62-33.29,31.06-27.12-16.78-60.66-8.11-73.82-2.25-21.6-18.42-54.96-24.3-94.43-16.57-58.89,11.56-73.65,55.65-68.49,91.2-12.07,3.91-21.39,10.23-27.74,18.93-6.91,9.46-8.69,19.57-8.98,26.26-17.06-.7-30.29,3.06-39.42,11.04-7.64,6.68-10.24,14.58-11.16,19.09-14.95,3.62-28.34,10.09-37.7,18.92-11.58,10.93-17.05,24.98-15.81,40.64,1.27,16.09,11,29.83,28.12,39.74,24.88,14.4,61.18,17.99,84.98,8.87,11.36,9.98,25.35,15.23,40.41,15.23,3.15,0,6.35-.23,9.59-.7,3.35-.48,6.6-1.28,9.78-2.23,6.98,17.11,17.66,29.11,31.9,35.55,8.93,4.04,18.07,5.38,26.27,5.38,10.06,0,18.63-2.01,23.69-3.51,2.58,3.29,5.81,6.04,9.7,8.1,9.95,5.26,23.71,5.73,36.14,1.42,6.44,6.02,18.44,11.28,32.06,13.78,5.01.92,11.37,1.68,18.74,1.68,19.02,0,44.75-5.08,71.41-25.32,7.63,4.09,16.98,7.03,27.51,8.4,4.31.56,8.89.87,13.65.87,17.21,0,36.61-4.07,53.12-14.64,4.62,3.75,13.72,12.5,14.77,24.05.88,9.74-4.16,19.86-14.99,30.09-44.89,42.39-167.79,18.25-282.1-10.97-11.23-2.87-21.96-5.05-32.4-6.82-8.55-2.17-18.03-3.36-27.98-3.71-74.03-6.66-124.27,13.83-147.04,37.45-15.77,16.37-21.23,36.3-15.38,56.12,16.37,55.44,75.35,67.98,225.43,47.89,82.12-10.98,115.84,3.37,129.65,17.36,11.95,12.09,10.24,25.12,10.15,25.76-.53,3.35,1.75,6.5,5.1,7.05.34.06.67.08,1.01.08,2.97,0,5.59-2.15,6.08-5.17.05-.27.39-2.63.2-6.25.12-.34.3-.64.36-1,.12-.76,2.89-18.75-12.21-37.02-19.47-23.54-58.27-36.21-115.34-37.65-107.01-2.7-135.04-5.08-143.07-20.65-1.4-2.71-.98-5.38,1.28-8.14,6.61-8.11,34-19.27,90.31-3.45,53.38,14.99,117.46,30.82,187.96,34.54,35.96,1.87,51.65-1.51,58.01-3.85,7.56,3.1,28.86,8.99,68.4-.21,37.78-8.78,51.24-22.9,55.86-30.31,12.25.43,48.29-.36,80.49-20.69,41.87-26.45,35.7-59.39,28.78-76.05,2.41-1.62,4.76-3.34,6.94-5.3,4.87-4.38,8.59-9.27,11.14-14.52,2.5,3.26,5.38,6.12,8.94,8.28,13.52,8.19,30.55,5.56,37.86,3.86.68-.02,1.38-.05,2.09-.11,3.35,1.57,5.39,4.39,5.61,8.03.41,6.75-5.46,17.27-23.35,24.73-14.58,6.08-24.25,14.81-28.74,25.96-5.59,13.87-1.48,27.31,1.46,34.08,1.01,2.32,3.27,3.71,5.66,3.71.75,0,1.52-.14,2.27-.43,3.1-1.22,4.66-4.68,3.54-7.81-.49-1.38-.3-2.89.59-4.61,2.35-4.54,11.09-13.5,43.24-22.52,24.78-6.95,42.15-24.07,46.46-45.8,3.99-20.11-4.44-40.6-22.56-54.82-14.52-11.39-15.5-17.6-17.28-28.89-.02-.14-.05-.29-.07-.43,10.14-.73,35.87-4.35,55.88-22.32,17.25-15.49,19.78-32.02,19.84-40.06,23.01-11.53,37.23-36.94,33.47-60.85ZM1980.19,961.42c25.54-11.64,44.83-3.8,50.16,1.81,2.04,2.14,5.29,2.54,7.78.96,9.02-5.72,27.02-13.15,46.27,1.47,8.71,6.61,13.53,20.66,11.47,33.4-2.02,12.44-10.23,21.71-23.13,26.09-17.64,5.99-29.55.18-33.52-8.22-1.91-4.03-2.01-9.23,2.05-11.76,2.89-1.8,3.78-5.61,1.98-8.5-1.81-2.9-5.61-3.8-8.5-1.98-8.97,5.58-11.72,16.89-6.69,27.52,6.32,13.36,23.81,23.05,48.66,14.64,16.56-5.64,27.35-17.45,30.78-33.34,4.44,2.81,9.99,4.44,16.41,4.55.21,0,.43,0,.65,0,12.68,0,27.67-6.15,31-17.79.94-3.28-.96-6.69-4.24-7.63-3.29-.92-6.69.96-7.63,4.24-1.23,4.3-10.06,8.86-19.57,8.83-4.72-.08-12.94-1.41-14.95-9.46-1.81-7.24.23-14.93,5.61-21.1,8.74-10.04,24.25-14.67,42.55-12.7,13.44,1.45,22.82,6.41,27.88,14.77,4.89,8.07,4.11,16.55,3.45,18.23-.7,1.75-.56,3.73.38,5.36.94,1.63,2.57,2.75,4.43,3.04,8.65,1.3,16.08,5.3,19.87,10.69,2.48,3.52,3.38,7.64,2.91,12.44-11.34,5.67-20.59,14.46-27.29,26.16-10.57-4.84-23.85-4.78-35.06.54-10.82,5.15-17.55,14.33-17.98,24.54-.14,3.41,2.5,6.29,5.91,6.43,3.35.39,6.28-2.5,6.43-5.9.34-8.02,7.77-12.41,10.95-13.92,7.91-3.76,19.82-4.65,28.57,1.87,1.49,1.1,3.4,1.5,5.21,1.02,1.8-.46,3.3-1.7,4.08-3.39,13.4-28.95,39.41-33.61,58.87-32.41,25.33,1.56,45.65,17.72,48.74,31.84.48,2.19,2.11,3.95,4.25,4.59,2.14.65,4.48.08,6.08-1.49,10.12-9.84,34.18-13.91,54.77-9.23,10.33,2.34,28.69,9.04,35.55,27.6,7.25,19.6,3.21,33.05-1.46,40.88-4.46,7.48-10.36,11.2-12.31,11.63-1.97-.19-3.92.62-5.22,2.14-1.4,1.65-1.84,3.91-1.16,5.96,1.04,3.13-.28,13.79-8.07,24.25-7.33,9.85-21.81,21.12-48.82,21.11-4.07-6.72-9.15-11.84-15.13-15.04-6.44-3.44-13.74-4.55-21.38-3.3-4.57-9.41-14.66-16.52-28.62-19.93-2.08-.51-4.27-.89-6.48-1.2-.25-2.32.14-5.65,2.03-9.3,2.6-5.02,11.53-16.83,38.05-18.06,18.46-1.01,27.91,8.08,30.34,16,1.39,4.52.56,8.63-2.06,10.23-2.91,1.78-3.82,5.58-2.04,8.49,1.78,2.92,5.58,3.82,8.49,2.04,7.5-4.6,10.48-14.4,7.41-24.39-1.46-4.75-4.45-9.71-9.02-13.94-1.57-8.39-7.81-16.07-17.55-21.3-13.69-7.37-36.87-10.6-60.91,2.34-25.42,13.69-32.92,39.2-33.23,52.78-7.3-8.49-19.89-13.65-34.73-13.65-.17,0-.33,0-.5,0-18.29.14-33.6,8.11-40.74,20.74-1.06-.4-2.13-.89-3.16-1.18.09-7.15-1.59-17.64-10.12-26.75-11.94-12.73-32.77-17.77-61.93-14.94-13.69,1.33-24.83,3.63-33.99,6.44-.3.05-.59,0-.88.09-53.62,16.9-71.36-32.49-72.08-34.59-1.01-2.97-4.08-4.7-7.15-4.05-4.56.99-13.29-1.16-21.15-7.16-6.6-5.05-14.64-14.36-15.45-30.09-.58-11.14,2.36-17.66,5.96-21.51-.46,2.79-.74,5.77-.58,9.15,1.23,25.81,23.47,40.14,46.92,42.31-.57,9.48,3.13,18.12,10.77,24.85,8.97,7.9,22.34,12.01,36.54,12.01,9.82,0,20.03-1.97,29.46-6.01,3.13-1.34,4.58-4.97,3.24-8.1-1.34-3.14-4.97-4.6-8.11-3.24-21.19,9.08-43.11,4.76-52.98-3.92-6.04-5.32-7.97-11.97-5.74-19.78.54-1.87.15-3.9-1.04-5.45-1.17-1.53-2.98-2.42-4.9-2.42-.3.05-.65.01-.97,0-19.73,0-39.9-10.48-40.87-30.84-.79-16.41,9.2-19.9,10.25-20.21,2.73-.73,4.62-3.25,4.58-6.08-.01-1.08.08-26.64,31.34-40.87ZM2244.25,1141.12c-4.56.15-9.07.76-13.31,1.87,1.39-9.98,7.13-27.89,26.34-38.24,19.72-10.62,38.35-8.18,49.21-2.34.12.07.22.13.33.2-3.31-.45-6.79-.71-10.64-.54-31.76,1.48-43.98,16.11-48.44,24.71-2.46,4.73-3.6,9.75-3.5,14.34ZM1775.91,974.55c37.01-7.28,67.58-1.71,86.1,15.68,1.05.98,3.83,3.6,7.62,1.95.66-.28,1.25-.68,1.75-1.15,5.72-3.18,40.36-15.81,66.23,2.35-.4,1.83-.67,3.47-.83,4.82-1.85,1-3.81,2.4-5.68,4.2-.08.01-.14.01-.22.02-24.11-19.58-50.65-12.64-64.53-4.39-11.96-8.63-51.12-32.57-98.74-16.69-25.73,8.57-44.68,27.69-50.72,50.27,2.94-25.21,19.37-49.26,59.03-57.05ZM1774.12,1273.73c-11.23-5.08-19.79-14.82-25.54-28.88,8.55-4.39,15.49-10.34,19.15-17.05,1.63-3,.53-6.75-2.46-8.38-2.98-1.63-6.74-.52-8.38,2.46-3.84,7.04-15.82,15.33-31.3,17.55-9.36,1.35-27.33,1.33-42.59-13.94-1.84-1.84-4.64-2.34-7.01-1.21-19.6,9.28-55.07,6.22-77.44-6.73-9.38-5.43-20.81-15.04-21.99-30.03-.95-11.97,3.08-22.29,11.98-30.68,15.25-14.41,43.5-21.59,70.29-17.93,19.5,2.66,27.56,11.5,28.6,18.89.97,6.91-3.68,13.71-11.85,17.32-13.41,5.91-23.31,1.93-26.41-1.97-.52-.66-1.31-1.87-.74-2.63,2.05-2.73,1.5-6.59-1.23-8.64-2.73-2.05-6.6-1.49-8.64,1.23-3.88,5.17-3.5,12.12.95,17.72,6.72,8.46,22.44,13.82,41.07,5.58,13.36-5.91,20.85-17.81,19.08-30.34-2.17-15.35-16.8-26.34-39.15-29.4-9.67-1.33-19.51-1.23-29.06-.11,1.1-2.33,2.82-4.99,5.59-7.41,7.57-6.61,20.4-9.24,37.08-7.56,1.89.18,3.77-.52,5.09-1.91,1.31-1.38,1.91-3.31,1.62-5.2-.02-.13-1.9-13.34,6.56-24.79,6.11-8.27,16.21-13.79,29.96-16.49,4.61,15.29,15.71,28.48,32.54,37.62,15.04,8.17,29.27,11.41,41.88,11.41,15.59,0,28.71-4.94,37.83-11.62,13.3-9.75,19.99-23.96,17.44-37.06-2.21-11.39-11.19-20.79-23.44-24.52-13.04-4.01-26.86-.72-36.08,8.49-2.41,2.41-2.41,6.32,0,8.73,2.41,2.41,6.32,2.41,8.73,0,7.16-7.15,16.96-7.48,23.74-5.42,7.87,2.41,13.59,8.18,14.93,15.08,1.62,8.36-3.21,17.84-12.62,24.74-13.44,9.85-37.96,14.84-66.51-.68-19.76-10.73-30.12-27.88-28.42-47.03,1.94-22.03,19.28-41.61,44.16-49.91,49.49-16.5,90.18,16.93,90.59,17.28,2.17,1.81,5.34,1.92,7.63.25,1.05-.77,23.77-16.86,47.67-2.54-1.56,1.13-3.12,2.4-4.58,4.01-6.52,7.19-9.49,17.33-8.83,30.14.82,15.95,8.03,29.89,20.28,39.26,8.04,6.15,17.87,9.8,26.02,9.9,5.06,10.86,20.68,37.65,52.62,41.51-3.29,2.87-5.56,5.58-7.12,7.84-7.05-2.24-19.85-4.47-34.33,1.62-17.17,7.24-24.55,16.87-30.27,24.88-2.7-19.16-15.33-34.12-35.7-41.33-30-10.62-85.47-7.85-106.54,44.82-13.59,33.98,6.53,58.84,13.03,65.65,5.24,5.49,10.92,9.52,16.37,11.85-4.57,6.2-7.49,14.07-5.77,23.9.21,1.21.49,2.39.8,3.53-8.33,2.2-24.41,4.85-39.25-1.87ZM1904.83,1159.45c-16.29-22.7-51.03-20-75.46-5.93-17.52,10.1-27.68,31.05-24.71,50.95,2.18,14.59,11.07,26.1,25.01,32.95-.29.2-.58.44-.87.65-3.21.42-10.64-2.64-17.91-10.27-5.21-5.46-21.36-25.4-10.5-52.54,17.86-44.65,65.27-46.84,90.95-37.76,11.61,4.12,30.57,15.14,27.76,42.66-2.05,1.21-4.48,2.18-7.44,2.89.76-8.08-1.56-16.24-6.83-23.6ZM1909.29,1299.25c32.18-2.45,53.22-17.27,62.53-25.43,1.31,1.82,2.84,3.55,4.58,5.18-26.01,18.52-50.54,21.36-67.11,20.25ZM2016.12,1282.65c-17.54-2.28-31.29-9.4-35.88-18.6-4.62-9.24-5.37-18.1-2.25-26.33,3.68-9.68,12.85-18.24,24.54-22.92,12.89-5.17,25.44-3.27,31.65.66,2.03,1.28,4.48,3.46,4.66,6.53.21,3.46-1.03,6.55-3.68,9.18-3.78,3.76-10.05,6.07-15.67,5.62-3.41-.11-6.35,2.33-6.58,5.73-.24,3.41,2.33,6.35,5.73,6.59,9.22.62,18.87-2.88,25.22-9.18,5.14-5.09,7.73-11.73,7.31-18.69-.39-6.46-4.07-12.22-10.38-16.22-10.9-6.9-28.12-7.58-42.85-1.7-14.84,5.94-26.61,17.15-31.49,30-3.48,9.15-3.5,19-.25,28.86-7.81,7.52-41.44,35.42-98.03,20.82-.24-.06-.46,0-.7-.04-.48-.07-.94-.13-1.43-.09-.42.04-.8.17-1.2.3-.25.07-.51.07-.75.18-9.96,4.49-21.87,4.75-29.64.66-5.3-2.8-8.57-7.55-9.72-14.09-3.23-18.38,22.11-27.76,22.35-27.85,2.58-.92,4.25-3.44,4.09-6.17-.16-2.74-2.11-5.05-4.78-5.66-16.95-3.9-27.44-13.7-29.52-27.61-2.21-14.76,5.64-30.92,18.66-38.43,20-11.53,47.64-13.77,59.27,2.44,5.83,8.13,5.15,15.35,3.55,20-2.46,7.11-8.8,13.1-16.16,15.25-8.62,2.52-13.71-2.35-15.01-6.26-1.19-3.57.85-4.33,1.62-4.62,3.19-1.2,4.81-4.76,3.61-7.95-1.2-3.2-4.75-4.79-7.95-3.61-8.21,3.08-11.92,11.35-9,20.09,3.39,10.17,15.12,18.6,30.19,14.2,9.25-2.71,17.14-9.18,21.78-17.46,19.68-2.22,26.46-11.66,32.98-20.81,5.45-7.66,11.08-15.58,25.82-21.79,15.9-6.72,28.89-.1,29.41.17,1.56.84,3.45.9,5.11.28,1.67-.62,3.01-2,3.64-3.67.08-.22,8.94-21.99,63.81-27.29,24.8-2.4,42.68,1.45,51.73,11.1,7.74,8.25,7.08,18.38,6.43,22.35-.28,1.71.18,3.46,1.25,4.82,1.08,1.36,2.67,2.21,4.4,2.33,5.05.36,14.99,4.49,20.26,12.2,3.47,5.07,4.25,10.82,2.32,17.07-6.18,19.99-40.84,27.51-53.67,28.73-2.45.24-4.57,1.85-5.33,4.19-.77,2.33-.12,4.86,1.72,6.49,1.12,1.3,4.24,11.72-8.81,26.53-19.31,21.93-51.06,26.48-72.37,23.69ZM2091.35,1273.47c2.21-1.98,4.38-4.05,6.4-6.34,1.34-1.53,2.54-3.04,3.65-4.55,12.22,12.24,17.03,31.44,11.59,48.74-2.56,8.14-7.11,15.31-13.4,21.42,6.67-9.42,9.66-19.06,8.75-28.79-1.33-14.24-10.62-24.8-17-30.48ZM1588.03,1403.84c-4.61-15.61-.31-30.84,12.43-44.06,9.04-9.37,22.52-17.63,39.75-23.76-2.06,1.1-4.1,2.21-6.05,3.39-19.4,11.63-31.56,25.72-35.17,40.75-3.94,16.36.26,32.24,12.14,45.91,7.4,8.52,17.26,15.64,29.05,21.3-32.8-7.16-45.95-22.52-52.15-43.53ZM2219.26,1355.19c-6.64,4.19-13.52,7.46-20.3,10.01,13.55-7.68,26.01-17.71,32.55-30.5,5.68-11.11,6.41-23.03,2.19-35.5,3.29-.9,6.67-2.13,10.05-3.62,5.89,15.1,7.83,39.19-24.49,59.6ZM2277.17,1249.45c-.15-.89-.5-1.68-.97-2.38-2.62-14.06-14.93-21.39-26.74-22.28-8.24-.66-15.45,1.7-20.46,5.99.1-1.68.81-3.64,2.69-5.83,7.1-8.24,18.43-11.97,28.93-9.52,10.26,2.41,17.79,10.25,20.66,21.52,2.66,10.45,6.09,23.81,13.44,33.25-2.34-.61-4.62-1.48-6.71-2.76-5.8-3.53-9.35-9.42-10.84-18.01ZM2348.17,1252.02c14.6,11.45,21.19,27.02,18.08,42.7-3.39,17.08-17.48,30.65-37.69,36.32-20.28,5.68-34.86,12.34-43.55,19.85.29-1.9.79-3.84,1.57-5.77,3.21-7.97,10.63-14.42,22.04-19.18,23.85-9.94,31.61-25.56,30.92-36.87-.58-9.6-6.93-17.25-16.57-19.96-1.16-.32-2.4-.3-3.54.06-.02,0-.39.11-1,.28-13.49-.06-19.14-11.8-25.18-35.54-4.04-15.87-14.9-26.99-29.8-30.49-14.91-3.52-31.05,1.8-41.11,13.49-10.09,11.71-4.64,23.31-.35,27.81.03.04.08.04.11.07.21,2.91,2.35,5.38,5.35,5.72,3.35.32,6.44-2.06,6.82-5.46.65-5.87,7.7-8.42,14.27-7.94,7.58.57,16.28,5.23,15.83,16.49-.32,7.96-4.04,15.19-11.05,21.49-10.53,9.46-26.27,14.56-35.37,13.88-14.13-.94-25.32-9.33-24.93-18.69.1-2.27-1.06-4.41-3.01-5.56-1.95-1.16-4.38-1.15-6.33.01-5.4,3.24-12.46,3.58-18.44.9-3.19-1.44-8.77-5.02-10.25-12.93-.62-3.35-3.85-5.57-7.2-4.92-3.35.63-5.56,3.85-4.93,7.2,1.84,9.8,8.15,17.79,17.33,21.91,6.88,3.09,14.72,3.65,21.84,1.78,4.24,12.15,18,21.47,35.11,22.61.73.05,1.48.07,2.26.07.59,0,1.26-.08,1.88-.11,3.89,10.03,3.68,19.16-.74,27.8-16.01,31.31-79.47,44.69-80.11,44.82-1.51.31-2.72,1.19-3.59,2.32-.01.02-.03.03-.04.05-.26.35-.44.72-.62,1.11-.12.24-.3.44-.39.69-.06.17-6.34,16.61-49.07,26.56-44.17,10.27-62.19.25-62.3.19-1.91-1.18-4.54-1.09-6.5,0-.11.05-10.99,5.82-54.17,3.55-69.29-3.65-132.54-19.28-185.27-34.09-58.3-16.37-92.03-6.17-103.21,7.53-5.38,6.6-6.37,14.47-2.69,21.61,11.27,21.86,35.44,24.35,153.73,27.34,37.72.95,62.99,6.95,79.96,14.53-25.75-7.49-61.26-8.29-106.28-2.27-20.11,2.69-38.3,4.74-54.78,6.18-.27-.01-.51-.11-.78-.08-55.16,5.31-102.66-6.6-123.97-31.12-9.15-10.53-12.42-22.61-9.46-34.93,2.82-11.73,13.03-23.15,29.52-33.04,25.87-15.52,63.12-24.43,94.89-23.96,18.83,1.51,39.03,4.73,60.53,10.22,87.74,22.42,174.21,40.39,234.56,32.3.42.09.82.25,1.27.25.09,0,.19,0,.28,0,69.42-3.07,87.99-38.62,92.75-53.77,7.15-22.75.15-48.25-17.02-63.52,2.96-7.1,3.59-13.56,2.66-18.66,15.66-2.82,48.36-11.57,55.97-36.17,3.06-9.89,1.7-19.47-3.92-27.69-2.52-3.69-5.81-6.75-9.33-9.33,5.89-10.3,19.32-14.21,29.93-14.3,11.79.14,25.09,4.23,28.67,14.09.75,2.07,2.56,3.59,4.73,3.97,2.18.42,4.38-.42,5.8-2.11,4.81-5.73,16.2-8.62,28.24-7.79.53.14,1.07.23,1.62.23.12,0,.25-.04.37-.05,2.58.27,5.17.65,7.72,1.27,11.85,2.89,19.92,9.08,21.58,16.55.37,1.69,1.44,3.14,2.94,4.01,1.5.87,3.29,1.06,4.94.54,6.58-2.08,12.53-1.73,17.66,1.02,7,3.74,12.48,11.79,15.84,23.28,1.68,5.73,2.42,10.43,3.13,14.97,1.96,12.46,3.52,22.3,21.85,36.69ZM2405.42,1141.03c-2.68,1.1-4.23,3.93-3.73,6.78.03.17,2.78,17.13-15.62,33.66-18.28,16.42-43.09,18.89-50.01,19.27-.31-1.25-.63-2.51-1.02-3.85-.34-1.16-.74-2.25-1.12-3.36,30.23-1.56,46.1-16.64,53.1-26.05,7.48-10.05,10.76-20.93,10.79-28.92,4.53-2.1,9.08-6.03,12.47-10.14,5.79-7.01,18.02-26.64,6.63-57.45-3.02-8.16-8.04-15.14-14.64-20.88,3.84,1.69,7.51,3.62,10.82,5.96,12.14,8.59,20.08,21.24,22.34,35.62,3.12,19.8-9.79,41.03-30.02,49.36Z"/>
  <path class="cls-1" d="M3691.3,946.54c-27.71-15.32-43.48-30.96-42.9-42.36.68-2.11,1.46-4.23,2.44-6.4,5.29-7.37,19.05-12.79,38.05-14.56,46.73-4.35,50.13-35.65,50.26-36.98.23-2.49-1.07-4.87-3.28-6.03-2.21-1.14-4.9-.87-6.82.73-.2.16-20.3,16.43-65.63,13.08-35.44-2.67-118.84-3.11-127.32,49.87-4.96,31,16.49,49.79,35.43,66.36,22.31,19.53,41.56,36.42,27.94,70.61-13.96,21.61-44.51,19.44-86.67,16.42-20.38-1.46-43.48-3.14-67.62-1.96-33.05,1.59-53.61,10.89-63.23,16.54-1.27-2.5-2.69-4.94-4.46-7.24-8.96-11.68-23.2-19.15-40.11-21.06-39.28-4.42-74.33,4.46-91.47,23.2-7.47,8.16-11.48,17.97-11.89,28.83-3.11-1.04-6.47-1.51-9.96-1.57,1.02-14.36-7.29-31.11-22.07-42.57-10.27-7.98-48.05-31.06-102.23,6.41-.88.61-1.47,1.43-1.92,2.33-.91.69-1.9,1.31-2.76,2.06-9.97,8.74-20.85,25.12-18.11,54.27-7.33,2.11-12.95,5.92-16.98,11.1-24.12-3.3-43.59.7-57.82,12.05-13.49,10.76-21.87,28.35-23.75,49.6-.58.24-1.17.43-1.75.68-14.18,6.08-23.28,14.23-27.03,24.23-1.81,4.82-2.05,9.23-1.71,12.73-9.68,1.68-26.46,6.44-34.54,19.59-4.95,8.06-5.79,17.73-2.66,28.81-28.59.53-50.22,13.49-60.33,28.47-9.15,13.58-9.71,29.38-1.49,42.27,11.29,17.69,10.03,23.28,8.44,30.37-1.34,5.95-3,13.35,1.56,26.16,7.94,22.32,28.62,27.98,41.23,27.84,5.41,6.35,21.25,21.46,58.99,36.56,11.92,4.77,24.66,7.07,36.82,7.07,19.78,0,38.07-6.08,48.98-17.51,10.91-11.44,12.98-26.37,5.83-42.06-3.16-6.93-6.84-12.5-10.71-17.19,9.78,5.62,21.39,9.9,31.86,12.1,5.27,1.11,11.63,1.98,17.31,1.4.65,4.17,2.33,8.51,5,12.71,4.83,7.61,20.24,25.74,58.77,29.75,3.38.35,6.55.51,9.55.51,21.03,0,32.97-8.01,39.47-15.24,5.37-5.98,8.43-13.05,9.48-19.12,5.84.14,12.86-.94,19.62-3.35,9.81,31.53,47.75,40.43,69.19,40.73,7.3,16.45,22.5,29.05,42.63,34.86,9.83,2.84,19.18,4.11,27.82,4.11,24.8,0,43.71-10.48,51.09-24.42,22.84,2.97,43.19-3.3,56.41-17.54,9.46-10.19,13.86-23.26,11.21-33.32-1.1-4.21-1.76-10.08,1.39-14.16,3.51-4.55,10.44-5.51,15.64-5.51,9.25,0,17.12-2.69,22.53-7.51,12.38,2.42,23.63,3.51,33.83,3.51,57.21,0,81.23-33.24,87.55-44.1,47.06-5.25,48.28-39.57,48.29-39.92.02-.77-.15-1.49-.4-2.18,1.33-2.44,2.51-5.04,3.38-7.96,8.45-28.14-8.9-47.72-22.65-56.52,2.89-8.63,3.71-25.07-19.15-43.78-1.93-1.58-4.03-3-6.2-4.36,57.48-6.16,101.6-38.67,116.7-88.67,15.34-50.78-3.15-120.8-79.06-162.74ZM3445.77,1067.65c23.41-1.15,46.12.49,66.14,1.94,19.67,1.41,37.53,2.69,52.89,1.33-17.32,4.81-38.87,4.38-62.13,3.85-37.61-.86-76.53-1.71-104.41,20.91-3.48-2.88-7.42-5.18-11.77-6.57-.04-1.73-.27-3.47-.55-5.21,6.46-4.21,25.62-14.6,59.83-16.23ZM3194.42,1061.19c12.51,9.7,19.4,24.18,16.92,34.68-.29.09-.57.12-.87.22-1.91.62-3.73,1.44-5.53,2.27.24-4.08-.19-8.21-1.44-12.3-4.82-15.85-20.58-29.35-41.11-35.22-1.89-.54-3.77-.89-5.67-1.3,13.99-.51,26.92,3.3,37.7,11.65ZM3084.73,1127.41c3.34-.54,5.62-3.65,5.13-6.99-3.17-21.56,1.44-38.47,13.34-48.89,12.95-11.35,34.86-14.8,55.8-8.81,16.55,4.73,29.07,15.05,32.69,26.94,2.43,7.99.48,16.03-5.64,23.26-10.87,12.84-24.64,4.51-27.29,2.72-6.34-4.3-8.72-9.74-7.65-11.76,1.6-3.01.46-6.75-2.54-8.36-3.02-1.6-6.75-.46-8.36,2.54-4.59,8.61.19,20.03,11.62,27.79,6.9,4.68,15.61,7.29,24.17,6.14-.87,2.88-1.58,5.82-1.98,8.87-.98,7.46-.46,14.44,1.29,20.76-3.56-.75-7.27-.96-11.05-.43-19.18,2.64-23.24,15.04-24.1,20.26-1.5,9.1,2.5,19.13,8.92,22.34,3.04,1.51,6.8.31,8.32-2.74,1.53-3.05.33-6.74-2.72-8.27-1.01-.69-3.33-5.24-2.18-10.09,1.5-6.34,8.14-8.54,13.45-9.27,8.39-1.09,16.08,2.83,20.66,10.63,4.67,7.97,6.58,21.98-3.43,35.25-8.02,10.63-17.14,10.28-29.75,9.78-10.9-.43-23.25-.92-36.36,6.2-23.61,12.81-42.95,8.93-52.38,5.49-11.43-4.18-20.34-11.98-23.83-20.89-4.74-12.07-4.81-24.72-.2-34.69,3.99-8.63,11.13-14.77,21.22-18.24,2.84-.97,4.56-3.85,4.09-6.81-4.13-25.98,8.73-31.12,18.76-32.73ZM3193.04,1226.75c7.78-10.3,10.85-22.63,9.23-34.16,3.11,2.74,5.41,5.89,6.71,9.53,3.04,8.52.44,17.29-1.57,21.14-5.18,9.89-16.13,15.14-28.21,14.93,4.87-2.21,9.55-5.75,13.85-11.44ZM3009.87,1149.31c10.74-8.57,25.72-11.87,44.5-9.94-1.35,5.21-1.84,11.09-1.21,17.77-10.84,4.83-18.98,12.67-23.69,22.88-.56,1.22-1.02,2.5-1.48,3.77-5.89-.87-20.35-2.28-36.67,1.43,1.78-12.05,6.55-26.33,18.56-35.91ZM2923.89,1252.99c8.07-13.19,31.72-14.64,31.96-14.65,2.06-.11,3.93-1.25,4.98-3.03,1.05-1.77,1.15-3.96.26-5.81-.02-.05-2.15-4.96.12-11,2.49-6.62,9.52-12.58,20.33-17.22,17.86-7.65,36.52-6.31,43.67-5.4-.26,2.59-.28,5.23-.17,7.9-9.38.04-28.19,1.04-40.19,7.99-15.44,8.95-18.93,21.81-18.26,31.52-11.73.38-27.35,5.06-36.7,13.14-5.02,4.34-7.22,8.78-8,12.65-1.29-6.36-.66-11.77,2-16.1ZM2928.24,1289.02c11.57,13.85,34.9,21.4,44.13,22.66,20.75,2.83,26.94,7.72,28.77,10.37,3.8,5.5,11.78,12.87,22.76,19.07-1.43,1.45-2.75,3.1-3.88,4.99-.73,1.21-1.37,2.48-1.91,3.77-4.46-2.36-11.69-7-15.06-13.76-5.22-10.44-14.65-12.9-26.58-16.02-6.27-1.64-13.38-3.5-21.75-6.85-8.14-3.26-13.27-6.12-17.8-8.64-8.89-4.96-15.31-8.54-33.71-9.48-16.66-.85-33.23,6.05-43.03,18.01-1.17,1.43-2.19,2.92-3.13,4.44.86-2.31,2.03-4.62,3.57-6.9,10.08-14.95,34.84-27.27,67.61-21.65ZM3035.99,1447.99c-12.36,12.95-42.78,19.3-72.28,7.5-44-17.61-55.33-34.53-55.4-34.63-1.24-2.03-3.53-3.1-5.89-2.92-.98.11-24.16,2.21-31.88-19.51-3.36-9.45-2.33-14.02-1.15-19.32,2-8.9,2.69-16.78-5.41-31.76.81-1.36,1.09-3.02.68-4.67-2.49-9.78,1.39-17.21,5.08-21.71,7.25-8.85,20.19-14.06,32.85-13.5,15.52.79,20.07,3.32,28.32,7.93,4.61,2.57,10.35,5.77,19.23,9.33,9.09,3.64,16.92,5.68,23.22,7.33,11.06,2.89,16.05,4.38,18.66,9.6,6,12,19.16,18.78,23.76,20.86.1,5.56,1.57,11.29,4.46,16.72.53,1,1.16,1.98,1.84,2.95-3.26-1.77-6.39-3.07-9.25-4.02-15.49-5.18-30.76-2.92-39.03,1.6-7.64,4.17-11.6,11.64-10.61,19.98,1,8.31,6.65,15.44,13.74,17.33,3.29.89,6.68-1.08,7.56-4.37.88-3.29-1.08-6.67-4.37-7.55-1.92-.51-4.25-3.4-4.67-6.88-.4-3.33,1.04-5.91,4.26-7.67,4.79-2.61,16.51-4.97,29.21-.73,13.16,4.38,23.74,14.66,30.61,29.71,5.06,11.1,3.87,20.66-3.53,28.42ZM3242.48,1410.33c.8-.56,1.54-1.15,2.28-1.75,13.5,21.88,38.41,24.95,51.07,24.96-.19,3.5.04,7.03.63,10.57-13.53-1.12-47.06-6.59-53.98-33.78ZM3646.03,1340.69c-2.27.17-4.26,1.61-5.18,3.7-.95,2.15-23.77,51.51-104.96,37.61.69-2.77.86-5.7.45-8.7,4.23.45,8.63.78,13.27.95,2.29.08,4.52.12,6.69.12,58.72,0,77.28-28.57,82.56-40.97,11.28,1.36,26.51.81,39.4-4.89-5.72,5.62-15.47,10.89-32.23,12.2ZM3463.68,1318.59c.04-3.79-.48-7.68-1.7-11.6-7.84-25.28-32.95-36.99-63.88-29.84-11.91,2.75-18.72,9.45-22.03,16.43-.39-2.51-.2-5.15.63-7.83,2.79-8.95,13.07-18.75,33.6-19.39,31.99-1.01,54.33,15.13,61.62,44.26,4.55,18.21,17.31,32.58,33.41,42.9-28.28-10.85-38.84-28.93-41.64-34.92ZM3666.17,1244.82c-1.18,1.48-1.62,3.41-1.19,5.24.42,1.84,1.66,3.38,3.37,4.19,1.25.59,30.48,14.87,21.49,44.83-8.87,29.57-53.5,21.45-53.94,21.36-3.25-.58-6.42,1.48-7.18,4.69-.3,1.25-6.53,24.49-42.17,33.39-.15.02-.29-.02-.43.02-29.66,7.11-91.75-9.03-102.22-50.91-8.69-34.75-36.34-54.73-73.98-53.62-27.01.85-40.95,15.06-45,28.08-3.83,12.35.33,24.83,10.88,32.59.3.22.66.3.98.45,1.85,2.66,4.38,4.69,7.51,5.73,3.22,1.06,6.73-.67,7.81-3.91,1.07-3.23-.68-6.73-3.91-7.81-1.48-.49-2.44-2.75-2.3-5.49.24-5.14,4.32-12.01,15-14.47,19.24-4.45,42.31-1.13,49.32,21.47.6,1.92.96,3.79,1.13,5.61-.53,1.31-.69,2.77-.2,4.22.01.04.04.12.06.18-.44,3.85-1.85,7.46-4.43,10.74-5.82,7.42-15.78,11.44-22.11,11.04-2.77-.14-5.21,1.46-6.17,3.99-2.77,7.4-8.58,22.84-59.1,18.13-22.49-2.08-27.6-9.01-33.02-16.36-3.05-4.14-6.42-8.54-12.34-11.61-.27-2.44-1.97-4.59-4.48-5.29-1.21-.33-29.49-8.52-30.19-46.71-.2-11.09,4.43-21.14,13.76-29.84,19.08-17.79,52.52-25.2,69.27-23.73.02,0,.03,0,.04,0,2.6.74,4.83,1.59,6.44,2.57,2.91,1.78,6.72.86,8.49-2.05,1.78-2.91.86-6.71-2.05-8.49-2.71-1.66-6.65-3.06-11.3-4.17-.19-.03-.34-.14-.53-.16-.05,0-.12,0-.17,0-26.01-5.97-76.36-2.34-103.53,25.64-15.74,16.2-19.42,42.01-9.39,65.75,8.97,21.22,26.54,34.93,44.77,34.93,13.56,0,16.46,3.95,21.29,10.48,6.16,8.35,13.81,18.74,41.82,21.33,6.86.63,13.17.96,18.97.96,27.54,0,43.45-7.31,51.16-23.17,9.16-.95,20.63-6.14,28.09-15.63,1.04-1.32,1.93-2.69,2.74-4.1,9.28,12.51,28.09,29.59,63.99,36.42,1.17,3.17,1.71,7.01-.37,10.37-2.59,4.2-8.69,6.7-16.32,6.7-14.43,0-21.79,5.61-25.42,10.31-3.43,4.45-6.82,12.37-3.54,24.84,1.27,4.81-.8,13.68-8.33,21.78-6.6,7.11-21.89,18.28-50.02,13.03-3.09-.54-6.08,1.24-7.02,4.21-4.38,13.89-29.67,27.59-65.8,17.16-18.08-5.23-31.32-16.76-36.3-31.66-3.86-11.55-2.03-23.58,5.04-33.01,9.31-12.42,32.69-13.46,48.66-6.61,4.64,1.98,15.27,7.61,13.71,16.93-.56,3.31-2.03,4.58-3.09,5.24-4.48,2.82-12.98,1.24-15.58.48-3.29-.97-6.71.87-7.69,4.14-.98,3.27.87,6.7,4.14,7.69,1.56.45,15.63,4.42,25.64-1.81,4.73-2.94,7.75-7.68,8.76-13.7,2.08-12.45-5.79-23.79-21.04-30.31-20.19-8.64-50.17-7.08-63.39,10.56-3.12,4.16-5.41,8.71-7,13.46-9.53.3-34.64-1.13-45.02-22.83,1.16-2.27,2.04-4.67,2.56-7.19,4.55-22.06-12.82-45.24-43.21-57.67-27.07-11.07-57.98-7.32-71.87,8.77-5.04,5.84-6.2,12.78-3.26,19.56,4.81,11.12,19.36,18.49,30.08,18.94,3.38.17,6.29-2.5,6.43-5.91.14-3.41-2.5-6.28-5.91-6.43-7.48-.31-16.84-5.91-19.26-11.51-1.04-2.39-.66-4.36,1.27-6.6,8.92-10.33,33.59-15.33,57.84-5.4,24.33,9.95,39.05,27.94,35.79,43.75-1.07,5.22-4.62,9.6-10.53,13.01-9.43,5.44-21.16,6.29-25.69,4.77-2.09-.69-4.41-.22-6.06,1.26-1.65,1.48-2.38,3.73-1.92,5.89.41,1.92-.43,9.74-6.66,16.67-7.89,8.78-21.19,12.49-38.55,10.69-23.02-2.4-41.57-11.41-49.63-24.1-2.97-4.67-4.07-9.36-2.96-12.54.9-2.59-.02-5.47-2.25-7.06-2.23-1.59-5.25-1.51-7.41.18-1.43,1.13-7.29,2.01-17.57-.14-19.02-4-38.45-14.69-43.31-23.84-5.56-10.47-2.22-18.15-.53-20.96,2.18-3.64,4.72-4.76,5.39-4.76.51,0,.97-.17,1.44-.29,7.52,2.82,15.88,4.88,24.91,5.58,2.26.17,4.49.26,6.72.26,20.37,0,38.85-7.19,48.29-19.1,6.59-8.33,8.33-18.24,5-28.7-6.13-19.27-25.44-26.29-40.81-24.71-10.61,1.11-17.66,6.32-18.39,13.59-.34,3.39,2.12,6.5,5.51,6.84,3.38.3,6.39-2.06,6.74-5.45.55-1.06,5.21-3.41,12.89-2.73,4.14.36,17.96,2.59,22.29,16.2,2.05,6.44,1.07,12.26-2.91,17.29-7.75,9.77-25.99,15.61-44.38,14.2-27.32-2.1-46.83-18.2-52-25.66-5.4-7.79-17.58-12.9-37.26-15.58-13.16-1.78-38.38-12.99-40.11-25.93-.13-.94-.51-3.8,4.04-7.73,9.09-7.85,28.08-11.62,34.73-9.68,2.25.63,4.7-.08,6.28-1.84,1.58-1.76,2-4.29,1.12-6.47-.64-1.57-5.75-15.63,10.96-25.31,9.42-5.46,26.77-6.42,35.76-6.33.68,2.77,1.49,5.53,2.56,8.26,4.76,12.15,16.39,22.61,31.09,27.98,7.57,2.76,15.52,4.14,23.62,4.14,12.91,0,26.19-3.49,38.88-10.37,9.79-5.31,19.1-5.13,28.92-4.76.08.04.13.12.22.16.04.02.76.38,1.89,1.07.6,1.17,1.49,2.2,2.77,2.8.81.39,1.65.66,2.47,1,5.55,4.67,12.08,12.61,10.68,23.58-.41,3.21,1.75,6.2,4.92,6.84.15.03,14.43,3.05,16.99,14.2.66,2.86,3.2,4.79,6.01,4.79.46,0,.93-.05,1.39-.16,3.32-.77,5.4-4.08,4.63-7.4-3.08-13.36-14.54-19.48-21.4-22-.1-5.99-1.69-11.2-4.03-15.67.48.01.97.08,1.45.08,16.3,0,31.2-7.78,38.47-21.67,3.66-6.98,6.45-19.29,2.27-31.01-1.02-2.88-2.47-5.56-4.22-8.07.33-.55.6-1.15.75-1.81.74-3.33-1.36-6.62-4.69-7.37-22.33-4.96-28.16-23.02-26.18-38.27,2.41-18.4,15.81-30.66,28.03-34.64,9.1-2.95,17.45-1.6,22.41,3.61,1.89,1.99,4.89,2.48,7.32,1.22,2.44-1.27,3.75-4.01,3.2-6.71-2.47-12.12.15-22.5,7.79-30.85,14.53-15.88,45.59-23.26,80.97-19.26,13.54,1.52,24.8,7.32,31.7,16.31,4.97,6.47,7.24,14.08,6.22,20.86-.24,1.62.17,3.27,1.15,4.59.98,1.31,2.44,2.19,4.06,2.43,10.93,1.61,19.19,10.62,20.57,22.42,1.79,15.38-8.4,29.03-27.25,36.5-16.07,6.37-34.39,5.97-48.99-1.06-9.19-4.42-15.93-11.16-18.01-18.01-2.48-8.15,2.45-14.42,5.61-17.43,6.08-5.8,14.37-8.19,18.24-6.79,3.22,1.17,6.75-.52,7.89-3.73,1.15-3.21-.52-6.75-3.73-7.89-8.85-3.16-21.84.84-30.91,9.48-8.88,8.46-12.13,19.39-8.91,29.97,3.12,10.24,12.03,19.55,24.46,25.54,17.9,8.62,39.37,9.14,58.9,1.42,13.58-5.39,22.52-13.08,28.01-21.41,15.13.15,36.99,6.3,40.35,20.08,1.55,6.35-.43,11.47-5.89,15.23-8.37,5.77-21.56,6.04-29.41.62-3.99-2.76-4.74-4.68-4.71-5.01.04-.14.42-.68,1.36-1.16,1.41-.74,2.77-.71,3.02-.64,2.86,1.83,6.69.98,8.52-1.89,1.83-2.87.99-6.69-1.89-8.52-6.4-4.09-16.72-1.54-21.22,5.24-3.67,5.53-3.52,14.26,7.91,22.14,5.8,4,13.29,5.99,20.89,5.99,8.02,0,16.15-2.21,22.53-6.61,9.68-6.67,13.65-16.99,10.88-28.33-4.74-19.42-28.55-27.7-46.75-29.23,1.56-5.5,1.93-10.95,1.35-15.92-.68-5.86-2.64-11.29-5.55-16.02,24.37-19.48,60.79-18.66,95.99-17.88,44.65,1.05,90.79,2.04,108.31-41.04,17.37-42.72-8.35-65.23-31.05-85.1-18.92-16.55-35.25-30.86-31.37-55.12,7.05-44.07,89.21-41.4,114.2-39.52,24.63,1.86,42.71-1.74,54.92-5.96-5.75,4.79-14.94,9.19-29.67,10.56-29.29,2.72-47.97,13.29-51.25,28.98-.13.64-.23,1.31-.31,1.99-7.89,26.49,2.69,50.41,30.61,68.11,40.07,25.41,82.01,57.97,72.37,123-11.18,75.48-92.34,75.22-108.54,74.33-44.12-2.23-72.53,5-86.89,22.21-9.95,11.94-12.61,28.14-7.89,48.16.22.92.68,1.69,1.23,2.38,1.22,3.57,2.99,6.99,5.44,10.13,10.51,13.48,30.43,20.03,48.46,15.98,18.74-4.23,23.72-16.87,22.29-26.41-1.51-10.04-9.48-17.4-17.93-16.72-3.4.26-5.94,3.23-5.68,6.62.26,3.4,3.29,5.88,6.62,5.68,1.51.07,4.21,2.45,4.78,6.25.89,5.93-3.77,10.49-12.8,12.53-13.29,3-28.44-1.85-36-11.53-5.86-7.5-6.32-16.67-1.35-26.54,4.07-8.06,14.34-14.21,28.92-17.3,10.95-2.31,22.92-2.59,34.27-1.13.74.41,1.56.69,2.45.77,1.28.11,2.54.16,3.82.24,12.58,2.39,23.96,6.94,31.66,13.23,23.71,19.41,14.46,32.48,14.12,32.94ZM3285.84,1330.92c-9.82-3.67-18.74-12.9-24.11-25.62-6.44-15.25-8.02-37,6.88-52.33,8.26-8.5,19.37-14.4,31.23-18.3-5.46,3.17-10.62,6.83-15.16,11.06-11.84,11.04-17.95,24.56-17.69,39.1.43,23.05,9.52,37.36,18.85,46.09ZM3758.55,1105.72c-16.17,53.53-69.86,84.79-137.24,80.57-15.26-2.64-31.15-2.3-44.03.42-7.97,1.69-14.91,4.29-20.77,7.58,12.73-11.51,37.32-16.5,73.49-14.62,18.04.95,108.64,1.19,121.39-84.86,11.62-78.42-46.66-115.38-77.97-135.24-13.9-8.81-22.49-18.88-25.84-30.07,7.52,8.36,19.39,17.69,37.76,27.85,69.88,38.61,87.12,102.35,73.22,148.37Z"/>
</svg>